<?xml version="1.0" encoding="UTF-8"?>
<svg version="1.1" xmlns="http://www.w3.org/2000/svg" width="1280" height="1280">
<path d="M0 0 C2.35280111 1.51401284 4.44148658 3.15237108 6.56640625 4.97265625 C7.36691406 5.6378125 8.16742187 6.30296875 8.9921875 6.98828125 C32.80104964 27.57572658 49.8445274 55.58555536 60.56640625 84.97265625 C64.31755228 84.39723773 67.62506336 83.21143538 71.13793945 81.80126953 C81.01419503 77.87400808 91.0792046 75.13708374 101.37890625 72.59765625 C102.08544342 72.42289764 102.79198059 72.24813904 103.51992798 72.06808472 C131.50141217 65.17984111 131.50141217 65.17984111 139.83984375 69.01953125 C141.92585671 70.74939566 143.35530791 72.55045957 144.56640625 74.97265625 C144.66313457 76.94989686 144.69620528 78.93055685 144.69140625 80.91015625 C144.69398438 81.97105469 144.6965625 83.03195313 144.69921875 84.125 C144.56640625 86.97265625 144.56640625 86.97265625 143.56640625 89.97265625 C142.04874883 106.14435266 142.6230664 127.42111572 150.56640625 141.97265625 C151.10491211 141.7931543 151.64341797 141.61365234 152.19824219 141.42871094 C153.88979492 140.86486003 155.58136614 140.30106457 157.27294922 139.73730469 C159.33981065 139.04824035 161.40653782 138.3587732 163.47314453 137.66894531 C169.4564784 135.67249449 175.44158482 133.68172223 181.43041992 131.70184326 C184.63797595 130.64102712 187.84471694 129.5777592 191.0513916 128.51428223 C192.63134979 127.99096496 194.21166662 127.46872909 195.7923584 126.94763184 C207.2685028 123.18296415 207.2685028 123.18296415 218.47436523 118.68823242 C223.80048298 116.86645029 228.95236225 117.50759272 234.25390625 119.03515625 C242.9589439 124.12678204 246.35077749 130.58257365 249.56640625 139.97265625 C249.93765625 141.04644531 250.30890625 142.12023437 250.69140625 143.2265625 C254.7163556 155.99689812 256.15809999 169.60733887 255.56640625 182.97265625 C255.53643555 183.68550781 255.50646484 184.39835938 255.47558594 185.1328125 C255.36914509 187.57995722 255.25175594 190.026282 255.12890625 192.47265625 C255.08983154 193.26349609 255.05075684 194.05433594 255.01049805 194.86914062 C254.82786002 198.10144961 254.59512547 200.88649859 253.56640625 203.97265625 C254.49453125 204.01390625 255.42265625 204.05515625 256.37890625 204.09765625 C265.61902817 205.54600869 272.85651799 211.87279396 279.94140625 217.53515625 C296.62266353 230.83340212 314.67545929 241.5844242 335.0390625 248.08984375 C340.72181722 250.07485545 343.82914585 252.70653408 346.71972656 257.96801758 C348.17694056 261.41818602 348.24723928 264.70373323 348.19140625 268.41015625 C348.18157715 269.19656494 348.17174805 269.98297363 348.16162109 270.79321289 C347.82749014 279.31869273 345.22216696 286.35000625 341.56640625 293.97265625 C341.21255859 294.72160156 340.85871094 295.47054688 340.49414062 296.2421875 C331.5796674 314.81015764 319.57456418 331.03564669 305.796875 346.2890625 C305.00047607 347.17150635 304.20407715 348.0539502 303.38354492 348.96313477 C302.78388916 349.62627686 302.1842334 350.28941895 301.56640625 350.97265625 C302.11730927 351.11331512 302.66821228 351.253974 303.23580933 351.39889526 C366.597164 367.590691 426.4611394 386.67259548 485.56640625 414.97265625 C486.87655968 415.59747318 488.18678332 416.2221429 489.49707031 416.84667969 C578.9650048 459.53792511 578.9650048 459.53792511 610.62890625 486.72265625 C611.24854248 487.25358887 611.86817871 487.78452148 612.5065918 488.33154297 C626.52026045 500.61965511 637.34660459 520.61409228 638.83325195 539.33251953 C638.93153031 542.8431718 638.9314215 546.3360884 638.87890625 549.84765625 C638.86835205 551.08418945 638.85779785 552.32072266 638.84692383 553.59472656 C638.72546588 561.91981694 638.16450974 569.79534747 636.56640625 577.97265625 C636.42976563 579.0709375 636.293125 580.16921875 636.15234375 581.30078125 C632.17116382 609.22846138 617.63290432 637.86663316 604.76708984 662.64501953 C603.33499203 665.42127421 601.9302725 668.2108603 600.5234375 671 C584.57847332 702.41316864 566.07398962 732.3373183 545.56640625 760.97265625 C545.02129395 761.73529785 544.47618164 762.49793945 543.91455078 763.28369141 C540.15778316 768.53233251 536.37132777 773.75883691 532.56640625 778.97265625 C531.99921875 779.74996094 531.43203125 780.52726563 530.84765625 781.328125 C523.04376734 792.00621407 515.11324134 802.57880526 507.04199219 813.05615234 C505.66452885 814.84521375 504.2905174 816.63685427 502.91796875 818.4296875 C491.81194741 832.92615018 480.48834199 847.21686414 468.65673828 861.13037109 C464.9527595 865.49295023 461.32297617 869.90950267 457.77734375 874.40234375 C455.56640625 876.97265625 455.56640625 876.97265625 453.04296875 879.10546875 C448.1264655 883.43261199 446.10216519 887.05538351 445.64624023 893.48608398 C445.52652727 897.40219891 445.5341234 901.31190486 445.56689453 905.22949219 C445.56633406 909.52602811 445.44944226 913.81149208 445.3125 918.10546875 C442.3149267 1013.75573894 452.79985085 1109.13611043 484.63427734 1251.52294922 C486.02045805 1256.65305224 487.27755236 1261.81724069 488.56640625 1266.97265625 C285.94640625 1266.97265625 83.32640625 1266.97265625 -125.43359375 1266.97265625 C-132.89952976 1250.31787592 -140.29429992 1233.7018632 -147.44921875 1216.921875 C-154.12272832 1201.32464011 -160.96869134 1185.78898912 -168.32421875 1170.5 C-169.43359375 1167.97265625 -169.43359375 1167.97265625 -169.43359375 1165.97265625 C-172.61026904 1169.0575864 -175.54167274 1172.21995431 -178.37792969 1175.62866211 C-187.25460815 1186.29430939 -196.94935632 1196.4159298 -207.55859375 1205.37890625 C-209.83742753 1207.31591496 -212.03684032 1209.3317125 -214.24609375 1211.34765625 C-218.56971313 1215.24945911 -223.02101827 1218.95414123 -227.55078125 1222.61328125 C-230.00838192 1224.62465091 -232.41889429 1226.67940145 -234.81884766 1228.75878906 C-258.26774829 1248.98429568 -282.87276232 1268.77307869 -315.43359375 1266.97265625 C-349.90538162 1264.03800764 -384.49118984 1234.16797772 -406.0703125 1208.9453125 C-429.81341127 1180.10571635 -431.91501989 1141.35666145 -429.17285156 1105.56982422 C-426.00666322 1076.2897131 -413.84966908 1047.02370401 -401.55078125 1020.5 C-401.2239183 1019.79194214 -400.89705536 1019.08388428 -400.56028748 1018.35437012 C-398.95915748 1014.89280518 -397.33757082 1011.44371136 -395.67700195 1008.01025391 C-395.0888823 1006.75966252 -394.50121266 1005.50885936 -393.9140625 1004.2578125 C-393.38707764 1003.163479 -392.86009277 1002.06914551 -392.31713867 1000.94165039 C-391.18586748 998.05246734 -391.18586748 998.05246734 -392.05859375 995.40722656 C-393.56671572 992.73695094 -395.17977853 990.23753487 -396.953125 987.734375 C-397.99243164 986.25614258 -397.99243164 986.25614258 -399.05273438 984.74804688 C-399.77654297 983.72904297 -400.50035156 982.71003906 -401.24609375 981.66015625 C-403.36248981 978.66655712 -405.47326263 975.67077864 -407.55517578 972.65307617 C-408.67395217 971.05663141 -409.82589425 969.48147697 -411.04248047 967.95825195 C-415.66388103 961.79446512 -415.1014553 955.22829008 -414.93359375 947.78515625 C-414.93617188 946.54701172 -414.93875 945.30886719 -414.94140625 944.03320312 C-414.82609687 933.02692296 -414.02449412 920.61399453 -406.43359375 911.97265625 C-403.95443025 909.6007914 -401.3567244 907.7618138 -398.43359375 905.97265625 C-397.6653125 905.48410156 -396.89703125 904.99554687 -396.10546875 904.4921875 C-387.50521139 899.78315088 -376.89834622 898.92886604 -367.43261719 901.52050781 C-358.21683607 904.84431055 -351.19034115 911.11938389 -344.43359375 917.97265625 C-340.07224934 910.92993564 -336.18291171 903.7308474 -332.43359375 896.34765625 C-322.90856134 877.84610287 -312.67510903 859.82074917 -300.43359375 842.97265625 C-299.91361816 842.25368164 -299.39364258 841.53470703 -298.85791016 840.79394531 C-290.21590704 828.87517206 -281.30053947 817.16352402 -272.35009766 805.47558594 C-270.52586888 803.09316639 -268.70388965 800.70904783 -266.8828125 798.32421875 C-260.4178734 789.85969814 -253.93267754 781.41098278 -247.43359375 772.97265625 C-245.62076933 770.61873916 -243.80834115 768.26451759 -241.99609375 765.91015625 C-241.19300781 764.86730469 -240.38992188 763.82445312 -239.5625 762.75 C-238.85996094 761.83347656 -238.15742188 760.91695312 -237.43359375 759.97265625 C-236.82386719 759.29332031 -236.21414063 758.61398437 -235.5859375 757.9140625 C-234.20529841 756.00944679 -234.20529841 756.00944679 -234.60546875 753.6171875 C-235.55095231 750.59788387 -236.6000888 747.63293725 -237.68359375 744.66015625 C-242.55287497 730.47189583 -244.82574552 715.54457356 -247.39924622 700.80664062 C-256.81627651 646.90379635 -270.51244757 593.78439981 -285.43359375 541.16015625 C-285.87919647 539.58725327 -285.87919647 539.58725327 -286.33380127 537.98257446 C-289.63720714 526.35986774 -293.06416238 514.77596043 -296.58984375 503.21875 C-296.90663086 502.17357712 -297.22341797 501.12840424 -297.54980469 500.05155945 C-300.69119688 489.83780431 -304.4737681 479.89328329 -308.43359375 469.97265625 C-311.3058526 479.77986298 -312.28619256 489.47314825 -312.93945312 499.6328125 C-313.51022302 508.21917706 -314.26281529 515.84086699 -319.43359375 522.97265625 C-323.82740204 526.71865948 -328.31159541 526.78934082 -333.9140625 526.61328125 C-349.43450662 523.78825036 -364.57747514 504.58708848 -373.12304688 492.25634766 C-379.36868579 482.78379531 -383.93628464 472.40848317 -388.30859375 461.97265625 C-388.59500732 461.29098389 -388.8814209 460.60931152 -389.17651367 459.90698242 C-391.98338574 453.00249922 -393.74607647 446.47224151 -393.43359375 438.97265625 C-394.44421875 438.86050781 -395.45484375 438.74835938 -396.49609375 438.6328125 C-422.87083627 434.21085666 -454.52718624 411.75601714 -471.26953125 391.65625 C-473.83399686 387.94724101 -474.76296153 385.13920947 -474.87109375 380.59765625 C-474.93103516 379.22480469 -474.93103516 379.22480469 -474.9921875 377.82421875 C-474.22319913 373.89861379 -472.3848603 371.53748405 -469.43359375 368.97265625 C-466.62639681 367.19122772 -463.68209758 365.77698545 -460.68359375 364.34765625 C-446.67660204 357.29958656 -434.51563858 348.51694824 -423.23046875 337.65234375 C-420.91850231 335.43724742 -418.56968548 333.34463069 -416.12109375 331.28515625 C-411.80251037 327.56509722 -408.12559131 323.30289807 -404.43359375 318.97265625 C-404.92988281 318.15925781 -405.42617188 317.34585937 -405.9375 316.5078125 C-427.13829567 281.06453883 -435.93746115 233.5699677 -429.19140625 192.80859375 C-427.21321078 185.40565607 -423.13348873 180.92474448 -416.7109375 176.890625 C-409.51071394 173.98830504 -399.70215929 175.72479769 -392.37109375 177.47265625 C-375.29633584 181.44086814 -360.69555337 176.65275395 -344.34765625 171.9296875 C-342.5071167 171.39891602 -342.5071167 171.39891602 -340.62939453 170.85742188 C-338.22679928 170.160355 -335.82656806 169.45506917 -333.42919922 168.74023438 C-323.12054265 165.71584884 -313.20625702 163.61356747 -302.43359375 163.97265625 C-302.32474854 163.36752197 -302.21590332 162.7623877 -302.10375977 162.13891602 C-297.06752973 135.44766728 -284.9948514 113.60475569 -266.43359375 93.97265625 C-265.7375 93.22371094 -265.04140625 92.47476563 -264.32421875 91.703125 C-254.75753802 81.734923 -243.48828335 73.66590285 -231.43359375 66.97265625 C-230.72428711 66.57062988 -230.01498047 66.16860352 -229.28417969 65.75439453 C-218.13983655 59.55176884 -208.29947888 55.75733828 -195.43359375 57.97265625 C-191.43613882 59.80624669 -189.28316022 62.09823985 -186.68359375 65.59765625 C-171.54026558 84.88108698 -149.43995743 96.01493412 -128.43359375 107.97265625 C-127.03503337 108.77192044 -125.63657701 109.5713667 -124.23828125 110.37109375 C-123.31273437 110.89960937 -122.3871875 111.428125 -121.43359375 111.97265625 C-121.04429687 111.36679688 -120.655 110.7609375 -120.25390625 110.13671875 C-113.67727341 100.28692302 -105.56259332 92.68653884 -96.3515625 85.3203125 C-93.16535232 82.7568422 -90.04611808 80.12455815 -86.93359375 77.47265625 C-83.02100868 74.14028618 -79.07282617 70.87035102 -75.05859375 67.66015625 C-59.48727912 54.94056494 -45.54764373 40.6967664 -33.43359375 24.66015625 C-32.81033203 23.83628418 -32.18707031 23.01241211 -31.54492188 22.16357422 C-27.70743818 16.98130457 -24.41798343 11.6864841 -21.43359375 5.97265625 C-17.1179283 -2.1407948 -8.41993884 -3.55448462 0 0 Z " fill="#020303" transform="translate(573.43359375,13.02734375)"/>
<path d="M0 0 C3.7028633 -0.15113728 6.73015621 -0.07751362 10.30786133 0.95019531 C13.91605994 1.97613289 17.28949108 2.50107707 21.01171875 2.921875 C28.73136241 3.87368495 36.24866789 5.43711339 43.8125 7.25 C44.51110138 7.41584595 45.20970276 7.58169189 45.92947388 7.75256348 C126.12828324 26.88734387 199.9087085 57.63818923 302.56835938 112.54248047 C304.77736429 113.86655269 306.99995625 115.16084651 309.234375 116.44140625 C318.00152179 121.49621779 326.1789816 127.17469775 334.09521484 133.48242188 C335.32935287 134.46568283 336.57146679 135.43904815 337.82275391 136.40039062 C349.60695066 145.54516279 357.7829138 159.05050446 360 174 C363.69562562 226.74789633 337.37316333 276.54434597 311.68115234 321.07324219 C310.04762228 323.91709324 308.43786178 326.77325054 306.83203125 329.6328125 C293.41564167 353.31535686 278.0193903 376.00371994 262 398 C261.47599609 398.72155273 260.95199219 399.44310547 260.41210938 400.18652344 C251.74856429 412.09259442 242.8563324 423.82098578 233.90332031 435.51025391 C232.1145834 437.85011268 230.33312983 440.19528037 228.5546875 442.54296875 C222.74399282 450.20256017 216.82769941 457.75392185 210.73364258 465.19042969 C207.25825413 469.43375248 203.86043729 473.72785431 200.5 478.0625 C192.54265181 488.28191693 183.93027393 497.97269327 175.21484375 507.54858398 C173.87247927 509.03432933 172.5401672 510.52935861 171.22705078 512.04101562 C166.30777854 517.6594418 161.1092794 522.93117819 155.7890625 528.16796875 C155.04950317 528.89732132 154.30994385 529.62667389 153.54797363 530.37812805 C150.45740373 533.42322527 147.36491334 536.4661341 144.25830078 539.49487305 C141.96769964 541.73093607 139.69005391 543.97954955 137.4140625 546.23046875 C136.36407578 547.24478218 136.36407578 547.24478218 135.2928772 548.27958679 C131.28732402 552.26343562 128.67254192 555.55945649 127 561 C127.66666667 564 127.66666667 564 130 566 C133.21090984 567.51981971 133.21090984 567.51981971 137 567 C140.09985492 565.11256191 142.47943408 562.59082559 145 560 C146.39261882 558.60738118 147.78524865 557.21477331 149.17822266 555.82250977 C150.13981268 554.86043294 151.10043164 553.89738452 152.06005859 552.93334961 C160.91466985 544.0461504 160.91466985 544.0461504 164.6640625 543.88671875 C165.82035156 543.94279297 165.82035156 543.94279297 167 544 C166.99333817 545.05931732 166.98667633 546.11863464 166.97981262 547.21005249 C166.91782627 557.40993893 166.87348283 567.60978518 166.84456348 577.80982018 C166.82919414 583.04826336 166.80851473 588.28654955 166.77368164 593.52490234 C166.59071 621.83078846 167.4777314 649.80318163 170 678 C170.10251068 679.17556458 170.20502136 680.35112915 170.31063843 681.56231689 C170.85825567 687.75944298 171.48888164 693.94320376 172.1875 700.125 C172.33848648 701.48890869 172.33848648 701.48890869 172.49252319 702.88037109 C179.37930397 764.75326988 188.47250533 827.34054949 205.20678711 887.40722656 C205.39373642 888.08504684 205.58068573 888.76286713 205.77330017 889.46122742 C206.27664 891.28054086 206.78839039 893.09752157 207.30078125 894.91430664 C207.94555828 897.75974552 208.05484003 900.10479465 208 903 C161.26339201 903.0228643 114.52678461 903.04049717 67.79017213 903.05106533 C62.27865316 903.05231611 56.76713419 903.05361043 51.25561523 903.05493164 C49.60967527 903.05532511 49.60967527 903.05532511 47.93048399 903.05572652 C30.1385103 903.06008367 12.34653983 903.06797146 -5.44543194 903.0771528 C-23.68722675 903.08648809 -41.92901986 903.09205534 -60.17081696 903.09408849 C-71.43658538 903.09546398 -82.70234471 903.09981595 -93.96811033 903.10791647 C-101.68234524 903.11318239 -109.39657542 903.11480465 -117.110812 903.11350138 C-121.56855368 903.11285776 -126.02627944 903.11387821 -130.48401833 903.11920547 C-134.55809358 903.12403898 -138.63214205 903.12433897 -142.70621849 903.12089889 C-144.18671155 903.12047315 -145.66720622 903.1217693 -147.14769607 903.12488318 C-149.14691927 903.12884646 -151.14615245 903.12615667 -153.14537716 903.12304783 C-154.25985633 903.12342755 -155.3743355 903.12380727 -156.52258676 903.1241985 C-159 903 -159 903 -160 902 C-162.39543764 891.52640267 -162.39793107 880.93102706 -162.375 870.25 C-162.37478851 869.32749451 -162.37457703 868.40498901 -162.37435913 867.45452881 C-162.18152683 780.59957052 -150.17801655 693.49590096 -36.54492188 261.65380859 C-33.97683675 258.90472379 -31.42388114 256.14188315 -28.875 253.375 C-27.98554687 252.41335938 -27.09609375 251.45171875 -26.1796875 250.4609375 C-23.90548919 248.00604016 -23.90548919 248.00604016 -22 245 C-17.07180603 244.32219682 -13.93540453 245.70111758 -9.625 248 C-8.56539062 248.556875 -7.50578125 249.11375 -6.4140625 249.6875 C-5.61742187 250.120625 -4.82078125 250.55375 -4 251 C-3.609375 253.1640625 -3.609375 253.1640625 -4 256 C-6.04250397 258.00020359 -7.99189379 259.65550045 -10.25 261.375 C-23.96906066 272.52108441 -32.94049922 287.0192053 -42 302 C-42.64001953 303.05300293 -43.28003906 304.10600586 -43.93945312 305.19091797 C-47.25774967 310.65564845 -50.56391662 316.12771009 -53.84765625 321.61328125 C-54.6521521 322.95579956 -54.6521521 322.95579956 -55.47290039 324.32543945 C-58.88176191 329.67945218 -58.88176191 329.67945218 -59.75 335.6875 C-59.17481217 337.46099582 -58.58958701 339.23123896 -58 341 C-52.14407644 341.32452571 -52.14407644 341.32452571 -47 339 C-45.40847802 336.68505893 -44.0004185 334.43615792 -42.625 332 C-42.2321582 331.32590088 -41.83931641 330.65180176 -41.43457031 329.95727539 C-40.28082933 327.97649772 -39.13939599 325.98905398 -38 324 C-36.92262122 322.14236707 -35.84028171 320.28758944 -34.75 318.4375 C-34.33234375 317.71433594 -33.9146875 316.99117187 -33.484375 316.24609375 C-29.51559177 310.24069808 -26.76463822 307.23913157 -19.67578125 305.4296875 C-18.95283875 305.22646881 -18.22989624 305.02325012 -17.48504639 304.81387329 C-15.09915185 304.14791969 -12.70631289 303.51184115 -10.3125 302.875 C-8.63602399 302.41171915 -6.96017022 301.94618135 -5.28491211 301.47851562 C-1.72841764 300.48836486 1.83084986 299.50923761 5.39257812 298.53808594 C13.99884602 296.18580675 22.57818275 293.73856371 31.15762329 291.29058838 C33.89539025 290.51197588 36.63531184 289.74138154 39.37573242 288.97216797 C41.07215489 288.49204578 42.76852784 288.01174855 44.46484375 287.53125 C45.22686096 287.31916901 45.98887817 287.10708801 46.77398682 286.88858032 C50.22930505 285.90378704 53.5250595 284.82799126 56.8125 283.37158203 C65.09650331 279.80697338 72.34084741 283.13793293 80.42431641 285.93161011 C93.89654039 290.57177505 107.42694706 294.38210417 121.35742188 297.41699219 C123.81426083 297.95902207 126.25837468 298.53902715 128.703125 299.1328125 C130.05174252 299.44418816 131.40067298 299.75421343 132.75 300.0625 C134.41289063 300.45115234 134.41289063 300.45115234 136.109375 300.84765625 C139.70542212 301.03717765 141.18601791 300.18033719 144 298 C145.65022176 295.70835053 145.65022176 295.70835053 146 293 C144.65579055 289.23621354 143.40662094 288.19656395 139.79956055 286.45288086 C136.31213516 285.03662265 132.83247241 284.15260199 129.14453125 283.37890625 C127.80459492 283.08800637 126.46492549 282.79587505 125.12548828 282.50268555 C124.42425842 282.35068695 123.72302856 282.19868835 123.00054932 282.04208374 C63.78212573 269.06239774 7.08835952 242.55753252 -45 212 C-46.61804496 211.06303384 -48.23652472 210.12681808 -49.85546875 209.19140625 C-53.34742285 207.16753431 -56.81887842 205.11274428 -60.27587891 203.02978516 C-61.85340291 202.08755969 -63.44745433 201.17314868 -65.04296875 200.26171875 C-66.29013672 199.51341797 -66.29013672 199.51341797 -67.5625 198.75 C-68.24441406 198.35296875 -68.92632813 197.9559375 -69.62890625 197.546875 C-71 196 -71 196 -71.58203125 193.359375 C-70.73134392 188.44936756 -68.12457858 185.39159245 -65.125 181.5 C-63.92293762 179.88819939 -62.72111703 178.27621844 -61.51953125 176.6640625 C-60.92092285 175.87161133 -60.32231445 175.07916016 -59.70556641 174.26269531 C-38.59421101 146.25524586 -21.00251557 115.30967363 -10.75 81.6875 C-10.38080444 80.48891357 -10.38080444 80.48891357 -10.00415039 79.26611328 C-6.99039195 69.12731806 -5.67328681 58.8684568 -4.5625 48.375 C-3.74321403 40.84671357 -2.80508688 33.42445642 -1.3125 26 C0.40555447 17.34439016 0.27757856 8.78998761 0 0 Z " fill="#00C7C7" transform="translate(833,377)"/>
<path d="M0 0 C9.97556444 1.53985223 18.28121426 16.2808753 24 24 C24.62841797 24.83797119 24.62841797 24.83797119 25.26953125 25.69287109 C33.99068513 37.47681116 39.96383587 50.69781242 46 64 C46.33402832 64.73081787 46.66805664 65.46163574 47.01220703 66.21459961 C48.16625012 68.80495758 49 70.69420048 49 73.5625 C47.62239667 76.92040812 45.34091717 79.24942232 43 82 C41.8509288 83.9254644 41.8509288 83.9254644 42 86 C43.1910274 89.13428263 44.16117965 91.33472869 46.8125 93.4375 C50.03038481 94.26495609 51.79464536 93.98626297 55 93 C56.20168131 92.11658491 57.37369437 91.19221429 58.5234375 90.2421875 C63.28755288 86.59404983 68.33651202 84.36699749 73.875 82.125 C74.90858643 81.70081787 75.94217285 81.27663574 77.00708008 80.83959961 C114.03247824 66 114.03247824 66 129 66 C129.02187378 66.93344238 129.02187378 66.93344238 129.04418945 67.88574219 C129.53272692 86.70220301 131.25656513 104.63073994 136.23046875 122.8125 C137 126 137 126 137 130 C136.04480469 130.4846875 135.08960938 130.969375 134.10546875 131.46875 C115.1331731 140.98411025 115.1331731 140.98411025 103.9375 158.25 C104.01641448 161.72223696 104.83105418 163.30751554 107 166 C109.35548707 167.72735718 110.5178565 168.02472531 113.4375 167.875 C118.01294999 166.31265122 120.7481863 163.35921339 123.68359375 159.66015625 C126.89671699 155.89280968 130.33961261 153.48787695 134.625 151.0625 C135.36951416 150.63702881 136.11402832 150.21155762 136.88110352 149.77319336 C154.04954636 140.24072011 173.1146614 134.91532026 191.73959351 128.99693298 C198.40422389 126.87736247 205.05051389 124.70465911 211.6875 122.5 C213.11884277 122.02916992 213.11884277 122.02916992 214.57910156 121.54882812 C218.43417105 120.26614392 222.16033384 118.96238713 225.83203125 117.21875 C229.21205442 115.91842049 230.67686167 115.59018374 234 117 C246.18219104 133.11318559 242.83229546 162.57981916 240.48779297 181.05053711 C238.86006823 192.32730495 235.52352026 202.96268309 231.6875 213.66015625 C228.92293158 221.23232386 228.92293158 221.23232386 230 229 C231.58845891 231.38268836 232.69066646 231.88603501 235.375 232.875 C238.86278066 233.04108479 240.1935496 232.0363082 243 230 C248.84398144 221.470946 251.75089152 210.72428213 255 201 C260.70697441 201.40505775 264.24417923 203.075947 268.6875 206.5 C269.29561523 206.94996338 269.90373047 207.39992676 270.53027344 207.86352539 C273.36163973 209.96637243 276.15271564 212.11823801 278.94140625 214.27734375 C294.36228878 226.13791126 311.73636463 236.70500805 330.1796875 243.11328125 C332 244 332 244 334 247 C333.78624465 253.23057275 331.37259345 258.26299947 328.6875 263.8125 C328.02415649 265.18921875 328.02415649 265.18921875 327.34741211 266.59375 C320.72620714 279.96759252 312.36045901 292.09901329 302.4375 303.23046875 C300.04212186 305.87374824 300.04212186 305.87374824 298.25 308.36328125 C291.88578405 316.81177792 281.03445685 320.22359191 270.8671875 321.77734375 C266.29360552 322.13251292 261.74320947 321.98924558 257.1640625 321.77734375 C253.56538932 322.03058371 251.84943982 322.83019688 249 325 C246.07839869 329.38240196 246.55679649 333.5203528 247.453125 338.53515625 C247.81387386 340.24355978 248.1809285 341.95064554 248.5546875 343.65625 C249.08902164 346.46853496 249.15024462 349.14535217 249 352 C241.48802651 351.38127357 234.48027581 349.73627929 227.1875 347.875 C215.8671243 345.06988661 204.5129373 342.59007525 193.0625 340.375 C192.30269836 340.22761383 191.54289673 340.08022766 190.7600708 339.92837524 C181.62100464 338.16468095 172.47388399 336.57031666 163.27612305 335.14282227 C125.86208438 329.29618694 90.91922021 315.59884583 55.85888672 301.80297852 C41.67554039 296.22685613 27.44355126 290.87310849 13 286 C12.0311084 285.67209473 11.0622168 285.34418945 10.06396484 285.00634766 C-26.71770843 271.85033237 -26.71770843 271.85033237 -64 276 C-69.79593279 279.50779932 -74.88090798 283.58008818 -77.046875 290.19921875 C-80.33439548 306.50897314 -79.71992851 320.31034522 -70.3515625 334.49609375 C-59.66221309 348.95152197 -42.51329255 357.6337528 -27 366 C-27.63709592 370.10320113 -29.00772204 373.42902924 -30.75 377.1875 C-37.29788857 392.041286 -39.87243404 406.87748973 -41 423 C-48.00826273 422.46478685 -54.13465842 419.88958703 -60.625 417.3125 C-61.84687012 416.82845703 -63.06874023 416.34441406 -64.32763672 415.84570312 C-91.19955402 405.06458379 -118.28989456 392.71010544 -139 372 C-138.74639196 367.45090577 -136.57999068 364.5210285 -134 360.875 C-133.40529907 360.03110718 -133.40529907 360.03110718 -132.79858398 359.17016602 C-129.37029198 354.36893723 -125.67549328 349.82928225 -121.84765625 345.33984375 C-119.27819609 342.08591851 -117.95049125 340.18821 -118.125 336 C-119.14772148 332.49352636 -120.01503556 331.09754258 -123 329 C-126.75466854 328.34701417 -128.50496837 328.72034816 -131.828125 330.59765625 C-135.48212434 333.36515575 -138.07816442 336.33796251 -140.875 339.9375 C-141.39819824 340.60354248 -141.92139648 341.26958496 -142.46044922 341.95581055 C-147.14965437 348.02117979 -151.19224999 354.34582543 -155 361 C-155.77429448 362.29974443 -156.54905734 363.59920991 -157.32421875 364.8984375 C-174.87456375 394.83152592 -185.86393652 428.46707915 -189.60546875 462.91015625 C-190 466 -190 466 -191 469 C-204.87612872 468.18717238 -220.76400222 457.76285955 -230.32421875 448.078125 C-248.67838676 427.4185695 -265.04830511 403.07462664 -271.984375 376.18359375 C-272.31953125 374.92675781 -272.6546875 373.66992188 -273 372.375 C-273.433125 370.65410156 -273.433125 370.65410156 -273.875 368.8984375 C-275.12165497 365.68656949 -275.99843019 364.61838372 -279 363 C-282.92596294 362.50925463 -285.0688869 362.36292261 -288.375 364.625 C-290.36581325 367.53465014 -290.66961749 369.49709828 -291 373 C-290.45295583 376.05824162 -290.45295583 376.05824162 -289.5 379.0625 C-288.25641794 383.22742784 -287.82766157 385.80383971 -289 390 C-290.23999023 391.90600586 -290.23999023 391.90600586 -291.80859375 393.71484375 C-292.38593262 394.39353516 -292.96327148 395.07222656 -293.55810547 395.77148438 C-294.17830566 396.48626953 -294.79850586 397.20105469 -295.4375 397.9375 C-296.72309064 399.46489555 -298.00561657 400.99487558 -299.28515625 402.52734375 C-300.23479248 403.66405518 -300.23479248 403.66405518 -301.20361328 404.82373047 C-311.26654234 417.01467225 -320.83573014 431.03702297 -322.74609375 447.09375 C-323 449 -323 449 -324 450 C-324.29997524 452.14087788 -324.53972197 454.29025113 -324.75390625 456.44140625 C-324.95209961 458.39916992 -324.95209961 458.39916992 -325.15429688 460.39648438 C-325.29045954 461.78514694 -325.42652599 463.17381895 -325.5625 464.5625 C-325.70206915 465.95511875 -325.84203791 467.34769752 -325.98242188 468.74023438 C-326.32555986 472.15978192 -326.66456409 475.57968973 -327 479 C-330.23196692 478.41727255 -331.88675613 477.49661232 -334.20703125 475.19140625 C-335.08174072 474.3262439 -335.08174072 474.3262439 -335.97412109 473.44360352 C-336.58078613 472.82283936 -337.18745117 472.2020752 -337.8125 471.5625 C-338.43979004 470.9243335 -339.06708008 470.28616699 -339.71337891 469.62866211 C-350.57210936 458.3955414 -357.95314562 444.90591231 -363.5 430.375 C-363.75531494 429.71226074 -364.01062988 429.04952148 -364.27368164 428.36669922 C-365.59304258 424.74923119 -366.10792341 421.82392277 -366 418 C-365.37955811 417.97494385 -364.75911621 417.9498877 -364.11987305 417.92407227 C-361.30887603 417.80803279 -358.49820759 417.68534241 -355.6875 417.5625 C-354.71103516 417.52318359 -353.73457031 417.48386719 -352.72851562 417.44335938 C-351.79072266 417.40146484 -350.85292969 417.35957031 -349.88671875 417.31640625 C-349.02264404 417.27974854 -348.15856934 417.24309082 -347.26831055 417.20532227 C-344.8352174 417.07252646 -344.8352174 417.07252646 -342 416 C-340.44830812 411.64048472 -339.79639359 409.11983524 -340.625 404.5625 C-341.68959596 401.90006343 -341.68959596 401.90006343 -343.71386719 401.36450195 C-346.46587452 400.92572078 -349.16928868 400.74619813 -351.953125 400.60546875 C-380.48662177 399.00005378 -402.79232152 391.97579969 -426 375 C-426.56605957 374.5879834 -427.13211914 374.1759668 -427.71533203 373.75146484 C-431.18148642 371.21600936 -434.60772779 368.63387903 -438 366 C-438.93585938 365.31679688 -439.87171875 364.63359375 -440.8359375 363.9296875 C-441.55007813 363.29289062 -442.26421875 362.65609375 -443 362 C-443 361.01 -443 360.02 -443 359 C-440.6484375 357.30859375 -440.6484375 357.30859375 -437.375 355.4375 C-418.36926993 344.24698922 -399.81789425 329.94689254 -385.71875 312.8984375 C-382.83863365 309.71721808 -379.52351282 307.02119549 -376.234375 304.2734375 C-373.87941819 302.11322306 -373.87941819 302.11322306 -372.64453125 299.265625 C-370.37058392 294.75013815 -367.20667491 291.20622025 -363.9375 287.375 C-362.6722189 285.88583195 -361.4103637 284.39374467 -360.15234375 282.8984375 C-359.59538818 282.24536621 -359.03843262 281.59229492 -358.46459961 280.91943359 C-355.8817454 277.53446947 -354.95937312 275.77191068 -355.1875 271.4375 C-356.04964182 267.4300488 -356.04964182 267.4300488 -359 265 C-362.60199344 263.79933552 -364.32202182 263.69867636 -367.8125 265.25 C-371.92851572 268.29085594 -374.81988725 272.67086642 -377.8515625 276.734375 C-378.56054688 277.48203125 -379.26953125 278.2296875 -380 279 C-381.32 279 -382.64 279 -384 279 C-394.25865969 260.64099604 -399.61636227 240.67405054 -403 220 C-403.19464844 218.824375 -403.38929688 217.64875 -403.58984375 216.4375 C-404.30322373 210.36398752 -404.18599478 204.21639606 -404.18530273 198.10913086 C-404.18749839 195.93909339 -404.20573173 193.76955793 -404.22460938 191.59960938 C-404.22754268 190.20052255 -404.2295279 188.80143334 -404.23046875 187.40234375 C-404.23457764 186.14929443 -404.23868652 184.89624512 -404.24291992 183.60522461 C-403.98200653 179.73295518 -403.19251252 176.67501816 -402 173 C-399.62878484 173.23712152 -397.25763133 173.47470852 -394.88671875 173.71484375 C-392.97355204 173.90383045 -391.05945416 174.08363267 -389.14453125 174.25390625 C-387.80455078 174.37572266 -387.80455078 174.37572266 -386.4375 174.5 C-385.61121094 174.5721875 -384.78492188 174.644375 -383.93359375 174.71875 C-382 175 -382 175 -381 176 C-360.2815777 177.89439278 -340.74133635 171.32628882 -321.1418457 165.36108398 C-306.35552034 160.88707396 -295.22116551 158.80634969 -281 166 C-274.58146394 169.45077355 -268.26882426 173.10020652 -261.96875 176.76171875 C-257.06180373 179.51532937 -257.06180373 179.51532937 -251.5625 179.5625 C-248.77095305 177.86033723 -247.36893998 176.9794576 -246 174 C-245.87390286 170.59537714 -245.95782838 168.17543162 -248.29833984 165.53564453 C-253.12068388 161.4667475 -258.24831357 158.31971994 -263.75 155.25 C-265.4326916 154.29758124 -267.1149998 153.34448471 -268.796875 152.390625 C-269.53260742 151.97844727 -270.26833984 151.56626953 -271.02636719 151.14160156 C-272.72377767 150.15977432 -274.36842022 149.08771986 -276 148 C-275.46060463 141.24048841 -274.11542872 135.28726059 -271.9375 128.875 C-271.62876953 127.96137695 -271.32003906 127.04775391 -271.00195312 126.10644531 C-266.85696997 114.25710971 -261.30578833 103.49985515 -253 94 C-252.27683594 93.16855469 -251.55367187 92.33710938 -250.80859375 91.48046875 C-248.5712352 88.95539573 -246.29476815 86.47288193 -244 84 C-243.47148437 83.40574219 -242.94296875 82.81148438 -242.3984375 82.19921875 C-232.10893999 71.14460476 -215.56226649 59.28159663 -201 55 C-197.93915119 55.17464302 -196.51037208 55.5390913 -194.2265625 57.6015625 C-193.69804687 58.26929688 -193.16953125 58.93703125 -192.625 59.625 C-192.01914062 60.35332031 -191.41328125 61.08164063 -190.7890625 61.83203125 C-189.90347656 62.90517578 -189.90347656 62.90517578 -189 64 C-173.13442503 82.25800295 -148.58312998 93.68979499 -127.69580078 105.10791016 C-120.31317034 109.1473134 -112.97967697 113.25328772 -105.75 117.5625 C-104.98357178 118.01439697 -104.21714355 118.46629395 -103.42749023 118.93188477 C-97.13959699 122.72226013 -91.42872176 127.13855236 -85.796875 131.83862305 C-82.4994523 134.58186762 -80.56450869 135.90591522 -76.25 136.625 C-72.44285248 135.89285625 -71.21532584 135.15257908 -69 132 C-67.82221688 129.69628579 -67.82221688 129.69628579 -68 127 C-70.66663589 121.42430678 -73.63906912 118.15193639 -78.5625 114.5 C-79.17367676 114.03295654 -79.78485352 113.56591309 -80.41455078 113.0847168 C-85.74258012 109.06618882 -91.27148346 105.42541907 -97 102 C-95.80709197 91.64922879 -83.12609111 82.8981994 -75.43359375 76.74755859 C-73.13931262 74.94481228 -70.83508033 73.155116 -68.52905273 71.36743164 C-45.07970783 53.08697746 -24.87368127 32.46963418 -6.91796875 8.8203125 C-4.6550615 5.84445447 -2.35294703 2.90557623 0 0 Z " fill="#2B2B2B" transform="translate(567,36)"/>
<path d="M0 0 C4.19993552 0.58648975 7.87106958 1.56422952 11.81640625 3.109375 C12.91146484 3.53476562 14.00652344 3.96015625 15.13476562 4.3984375 C16.83149414 5.06746094 16.83149414 5.06746094 18.5625 5.75 C19.66658203 6.18054688 20.77066406 6.61109375 21.90820312 7.0546875 C24.13797937 7.92420912 26.36537401 8.79986303 28.59033203 9.68164062 C30.94694392 10.59283239 33.31922045 11.46415405 35.70263672 12.30273438 C36.88229004 12.72361328 38.06194336 13.14449219 39.27734375 13.578125 C40.35105225 13.9484082 41.42476074 14.31869141 42.53100586 14.70019531 C45 16 45 16 45.90405273 18.02416992 C46.02712366 20.55855413 45.35645268 21.85862434 44.125 24.0625 C40.78505826 30.14679946 39.90650815 35.54475955 41.578125 42.35546875 C48.68543659 62.15902333 65.70258792 76.1897587 84.10961914 85.14916992 C86.6655723 86.29956341 89.25956429 87.17715007 91.9375 88 C98.30402276 90.04695795 104.41643232 92.27762155 110 96 C112.27621426 101.7986137 112.29449515 108.21122048 112.28710938 114.35595703 C112.29394241 115.24335571 112.30077545 116.13075439 112.30781555 117.04504395 C112.32131519 118.95521679 112.33042486 120.86542485 112.33552551 122.77563858 C112.34387421 125.80285213 112.36443181 128.82977256 112.38806152 131.85690308 C112.44422871 139.36995219 112.47965939 146.88307249 112.51568604 154.39624023 C112.5469855 160.75943418 112.58620919 167.12248398 112.63594055 173.48556137 C112.65593341 176.46070069 112.6643113 179.43572688 112.67224121 182.41091919 C112.6852178 184.24156096 112.69873872 186.07219897 112.71289062 187.90283203 C112.71190872 188.72379364 112.71092682 189.54475525 112.70991516 190.39059448 C112.78086471 197.00017327 114.0149505 202.52840594 117.125 208.4375 C117.47820312 209.11683594 117.83140625 209.79617188 118.1953125 210.49609375 C118.46085937 210.99238281 118.72640625 211.48867188 119 212 C129.86026333 213.45612469 137.1525796 209.61654757 146 204 C147.01513672 203.35780518 147.01513672 203.35780518 148.05078125 202.70263672 C160.65749959 194.60976456 171.46707539 185.88513925 180.02734375 173.46875 C181.94221831 171.07231293 183.16951972 170.06380467 186 169 C186.87398437 169.59425781 187.74796875 170.18851563 188.6484375 170.80078125 C195.59317256 175.49355846 202.60005041 180.06283908 209.75 184.4375 C210.48702148 184.88915527 211.22404297 185.34081055 211.98339844 185.80615234 C216.06803404 188.28692395 220.18887922 190.68022007 224.3671875 193 C225.68444824 193.73778687 225.68444824 193.73778687 227.02832031 194.49047852 C228.73113936 195.43938868 230.44128686 196.37529084 232.15917969 197.29663086 C232.92391602 197.72339111 233.68865234 198.15015137 234.4765625 198.58984375 C235.15799316 198.95972412 235.83942383 199.32960449 236.54150391 199.71069336 C237.26345947 200.34890015 237.26345947 200.34890015 238 201 C238 205 238 205 235.83984375 207.515625 C234.40318359 208.86914062 234.40318359 208.86914062 232.9375 210.25 C231.91359853 211.23514693 230.89146145 212.22213092 229.87109375 213.2109375 C229.37335449 213.69014648 228.87561523 214.16935547 228.36279297 214.66308594 C225.37091027 217.59815395 222.70664817 220.80536075 220 224 C219.16855469 224.94230469 218.33710937 225.88460937 217.48046875 226.85546875 C212.6862186 232.32573286 208.14579452 237.91314208 204.0625 243.9375 C203.65346436 244.53957275 203.24442871 245.14164551 202.82299805 245.76196289 C200.32597645 249.58050903 198.26353679 253.45951989 196.33984375 257.59765625 C188.38971634 274.3531815 188.38971634 274.3531815 180.08203125 277.87109375 C177.09757097 278.88863404 174.10841853 279.73320794 171.04125977 280.46191406 C167.87930038 281.29542184 164.98164875 282.67144222 162 284 C151.67347062 287.98262355 141.30375905 290.76183881 130.4375 292.875 C129.34397217 293.0901123 128.25044434 293.30522461 127.1237793 293.52685547 C111.74520681 296.3726034 111.74520681 296.3726034 107 294 C108.51577153 289.67063949 111.79453528 287.76011692 115.4375 285.3125 C121.89432497 280.83464567 128.00127862 276.0815615 134 271 C134.53592773 270.54898926 135.07185547 270.09797852 135.62402344 269.63330078 C154.86084033 255.70424077 154.86084033 255.70424077 167.2734375 237.94140625 C167.37568474 235.5464612 167.38106451 233.36866235 167 231 C165 228.66666667 165 228.66666667 162 228 C157.33655733 228.36650362 154.7998163 229.49814192 151.25 232.5 C150.38761719 233.22316406 149.52523438 233.94632813 148.63671875 234.69140625 C145.24609242 237.66008797 141.89967645 240.67380612 138.5703125 243.7109375 C135.02112344 246.87176544 131.32923553 249.84215654 127.6328125 252.828125 C125.28958965 254.76111002 123.04707156 256.75635431 120.8125 258.8125 C101.49553776 276.09252422 78.78058793 290.08485681 57 304 C56.11989258 304.56428711 55.23978516 305.12857422 54.33300781 305.70996094 C-18.67324372 352.51017867 -75.62014949 385.45373459 -165 367 C-178.67595174 363.83511695 -190.79097183 358.88354555 -199 347 C-202.97428388 338.58374266 -205.18291843 329.84801961 -206.9375 320.75 C-207.18781982 319.50186523 -207.43813965 318.25373047 -207.69604492 316.96777344 C-209.26699706 309.08735024 -210.69590274 301.1829735 -212.09863281 293.27099609 C-217.57883708 262.3733969 -224.5014299 231.86510486 -232.63354492 201.55712891 C-232.86586319 200.67770126 -233.09818146 199.79827362 -233.33753967 198.89219666 C-233.77230194 197.2467867 -234.21467313 195.60336119 -234.66600037 193.9624176 C-235.6411338 190.24771509 -236.23986694 187.65304635 -235 184 C-233.43359375 181.84375 -233.43359375 181.84375 -231.4375 179.5 C-228.3280887 175.74094384 -225.57412535 171.91677813 -222.9375 167.8125 C-218.44690927 160.98013636 -213.062666 153.73612561 -205 151 C-199.00394461 150.0465289 -194.30684265 150.75375636 -189.08203125 153.83203125 C-186.76464698 155.1320273 -184.36302719 156.13082161 -181.91577148 157.15893555 C-179.27182608 158.31968385 -176.71880962 159.63576061 -174.15234375 160.95727539 C-161.24634929 167.88709281 -161.24634929 167.88709281 -147 168 C-145.75008556 164.52801543 -144.91802034 161.80038041 -145.296875 158.1015625 C-147.99361999 153.19051772 -152.41004779 151.77059701 -157.375 149.5 C-159.39327088 148.5391501 -161.41150042 147.57821339 -163.4296875 146.6171875 C-164.39874023 146.1644043 -165.36779297 145.71162109 -166.36621094 145.24511719 C-169.4573852 143.78377229 -172.47410679 142.21627354 -175.5 140.625 C-186.78451132 135.05559986 -198.55029339 129.86189518 -211.12890625 134.0390625 C-222.20284308 139.10224179 -231.71295164 148.15868932 -238.50390625 158.23046875 C-238.99761719 158.81441406 -239.49132812 159.39835938 -240 160 C-240.99 160 -241.98 160 -243 160 C-243.17602249 159.38423599 -243.35204498 158.76847198 -243.53340149 158.13404846 C-257.56818984 106.63299958 -257.56818984 106.63299958 -276.36108398 56.75170898 C-278.43683484 52.00706711 -279.73099142 48.28513265 -279 43 C-277.609375 40.56640625 -277.609375 40.56640625 -275.75 38.5625 C-274.84507812 37.54349609 -274.84507812 37.54349609 -273.921875 36.50390625 C-272 35 -272 35 -268 35 C-267.55011719 35.825 -267.10023438 36.65 -266.63671875 37.5 C-256.60000118 55.62938623 -244.40614808 73.06323873 -230 88 C-229.12021484 88.91845703 -229.12021484 88.91845703 -228.22265625 89.85546875 C-216.77293363 100.80410942 -195.69893588 111.88581563 -180.0625 113.375 C-174.16354394 113.19173146 -169.74054411 110.74054411 -165.625 106.625 C-163.38925223 101.63756266 -162.93827824 96.77348943 -162.29492188 91.37353516 C-158.90101246 64.05930723 -151.39257617 39.04032522 -140 14 C-135.50899808 14.87726698 -132.83075763 17.4704684 -129.4375 20.375 C-120.89664838 27.41024941 -111.74264724 32.80174191 -102 38 C-101.11763672 38.47405273 -100.23527344 38.94810547 -99.32617188 39.43652344 C-86.99421411 45.99691462 -74.36765135 51.68092842 -61.4375 56.9375 C-60.77698639 57.20681335 -60.11647278 57.47612671 -59.4359436 57.75360107 C-39.98826735 67.07929761 -39.98826735 67.07929761 -19.8671875 67.12109375 C-16.80881501 65.2847906 -15.44788538 62.49431914 -14.44042969 59.13305664 C-13.96258131 56.81877658 -13.77478913 54.60530061 -13.640625 52.24609375 C-12.39618839 33.27131989 -8.77360817 16.91511201 0 0 Z " fill="#F1DBB1" transform="translate(557,411)"/>
<path d="M0 0 C6.84552582 1.60638873 12.30133245 10.93152038 15.84741211 16.61621094 C17.81722236 19.9050466 19.69192253 23.24297065 21.546875 26.59765625 C21.98725098 27.39042969 22.42762695 28.18320312 22.88134766 29 C27.43112313 37.21649888 31.89010306 45.48159994 36.30570984 53.77088928 C37.24716994 55.53765779 38.1905988 57.30337675 39.1340332 59.0690918 C40.3402362 61.32855399 41.54211239 63.590333 42.73901367 65.85473633 C47.54595437 75.65331593 47.54595437 75.65331593 55.046875 83.22265625 C57.63137877 83.82400962 57.63137877 83.82400962 60.234375 82.53515625 C62.96468799 80.24759672 63.72701871 79.05552072 64.546875 75.59765625 C63.66766038 73.10706964 62.75598927 71.12890871 61.484375 68.84765625 C61.12730469 68.17299316 60.77023437 67.49833008 60.40234375 66.80322266 C59.58983154 65.26859021 58.77015088 63.73773996 57.94482422 62.20996094 C56.39611049 59.31592725 54.89275873 56.4009496 53.39453125 53.48046875 C48.14666912 43.26935076 42.91054085 33.11785356 36.83984375 23.3671875 C35.37041106 20.21967156 35.28746986 18.0309596 35.546875 14.59765625 C42.37197114 15.08885635 49.18395416 15.71443758 55.984375 16.47265625 C56.99467773 16.57199463 56.99467773 16.57199463 58.02539062 16.67333984 C62.27760417 17.17141381 65.06169918 18.14343829 68.546875 20.59765625 C70.16162109 22.66870117 70.16162109 22.66870117 71.5703125 25.078125 C72.10849609 25.98240234 72.64667969 26.88667969 73.20117188 27.81835938 C73.76900391 28.79740234 74.33683594 29.77644531 74.921875 30.78515625 C76.16776538 32.883707 77.41521087 34.98133514 78.6640625 37.078125 C79.3044043 38.15884277 79.94474609 39.23956055 80.60449219 40.35302734 C83.67539529 45.48277875 86.861031 50.53878866 90.046875 55.59765625 C96.2081272 65.41620347 102.26506471 75.29432533 108.2734375 85.20703125 C110.31782943 88.57974088 112.37279807 91.94528169 114.4453125 95.30078125 C126.98049092 115.60599225 138.45527447 136.47601719 149.546875 157.59765625 C150.03510742 158.52594238 150.52333984 159.45422852 151.02636719 160.41064453 C157.21433944 172.25867348 162.72125828 184.37209017 168.109375 196.59765625 C180.64974721 225.04371796 194.15057146 252.97773804 208.046875 280.78515625 C208.59559265 281.8836792 209.1443103 282.98220215 209.70965576 284.11401367 C215.82960021 296.35252571 222.04204936 308.53283043 228.44775391 320.62426758 C230.85433021 325.16850629 233.19541846 329.74307572 235.484375 334.34765625 C235.84337891 335.06179688 236.20238281 335.7759375 236.57226562 336.51171875 C238.72125095 340.81757558 240.6846803 345.16031231 242.546875 349.59765625 C243.18897387 351.05763771 243.83427905 352.51621811 244.484375 353.97265625 C244.8246875 354.73835938 245.165 355.5040625 245.515625 356.29296875 C246.17635413 357.76959823 246.84253165 359.24380909 247.515625 360.71484375 C249.98676208 366.15533104 252.13192049 371.68421517 254.203125 377.2890625 C255.2171529 379.78581142 256.28445942 382.09147177 257.515625 384.4765625 C259.58078332 388.53084024 261.09819612 392.66601264 262.546875 396.97265625 C264.43967004 402.47020865 266.41335129 407.89915414 268.6171875 413.28125 C270.38066539 417.67512559 271.94715522 422.1421867 273.546875 426.59765625 C274.21270627 428.43129315 274.87937098 430.26462763 275.546875 432.09765625 C276.52249356 434.78015081 277.49784909 437.46274046 278.47271729 440.14550781 C280.5071661 445.74323988 282.54753865 451.3387719 284.59197998 456.93286133 C286.10198641 461.06842748 287.60710189 465.2057676 289.11181641 469.34326172 C289.90729909 471.52780729 290.70452345 473.71171937 291.50341797 475.89501953 C292.66302411 479.06511472 293.81649923 482.23738141 294.96875 485.41015625 C295.32805603 486.38823242 295.68736206 487.36630859 296.05755615 488.37402344 C296.38499817 489.27926758 296.71244019 490.18451172 297.04980469 491.1171875 C297.33974304 491.91229736 297.6296814 492.70740723 297.92840576 493.52661133 C298.546875 495.59765625 298.546875 495.59765625 298.546875 498.59765625 C237.496875 498.59765625 176.446875 498.59765625 113.546875 498.59765625 C109.73738057 490.97866738 106.09259889 483.47892562 102.7890625 475.65625 C102.36392868 474.6585408 101.93879486 473.6608316 101.5007782 472.63288879 C100.60092392 470.52066516 99.7025872 468.40779444 98.80569458 466.29431152 C96.46463557 460.78067743 94.10866537 455.27341868 91.75390625 449.765625 C91.06587166 448.15543991 91.06587166 448.15543991 90.36393738 446.51272583 C82.89420796 429.0410979 75.17056239 411.71650568 66.921875 394.59765625 C66.61492706 393.96025513 66.30797913 393.322854 65.99172974 392.6661377 C62.59120815 385.45137097 62.59120815 385.45137097 58.546875 378.59765625 C58.0078125 375.21875 58.0078125 375.21875 58.546875 371.59765625 C60.78540467 369.56458067 62.63009905 368.19018511 65.171875 366.66015625 C73.37728175 361.24153013 78.80316433 356.05207762 81.0703125 346.13671875 C84.09291183 323.69020241 78.56043999 303.06927407 71.609375 281.91015625 C71.20283691 280.66943359 70.79629883 279.42871094 70.37744141 278.15039062 C68.01429081 271.19851632 65.24867252 264.71841493 61.86547852 258.20385742 C60.26863801 255.04772478 59.09862097 251.952729 57.984375 248.59765625 C56.4793614 244.20763257 54.88323913 239.92212284 53.046875 235.66015625 C50.88308122 230.58200273 49.12004532 225.4177112 47.42407227 220.17089844 C45.78254733 215.15309171 43.81329584 210.33914025 41.73046875 205.4921875 C40.531101 202.55908022 39.52057936 199.61262036 38.546875 196.59765625 C34.640327 182.69712778 34.640327 182.69712778 26.015625 171.9375 C22.8734936 170.45325635 19.7307262 168.99059115 16.546875 167.59765625 C15.1546875 166.98664063 15.1546875 166.98664063 13.734375 166.36328125 C1.05353429 161.2761998 -11.6186976 161.7112901 -24.265625 166.72265625 C-41.20626208 174.30768988 -57.10258401 184.19391638 -72.20703125 194.9453125 C-72.92963135 195.45795654 -73.65223145 195.97060059 -74.39672852 196.4987793 C-75.72604458 197.45153735 -77.04632839 198.41708292 -78.35522461 199.39770508 C-81.11516461 201.38548081 -83.29414373 202.56655967 -86.6484375 203.22265625 C-89.453125 202.59765625 -89.453125 202.59765625 -91.5078125 200.32421875 C-92.10851562 199.30070313 -92.70921875 198.2771875 -93.328125 197.22265625 C-95.90346464 193.03711381 -98.50747306 189.13576086 -101.640625 185.34765625 C-110.91612727 173.85409909 -110.91612727 173.85409909 -110.453125 168.16015625 C-108.75968588 159.69869139 -105.46964189 152.13565042 -101.578125 144.47265625 C-101.10052734 143.52616211 -100.62292969 142.57966797 -100.13085938 141.60449219 C-94.58826032 130.73742217 -88.6005432 120.13198243 -82.453125 109.59765625 C-81.97343262 108.77217285 -81.49374023 107.94668945 -80.99951172 107.09619141 C-74.97201812 96.7829493 -68.36450234 87.17457967 -61.07275391 77.72070312 C-58.10136168 73.82573376 -55.22219595 69.86269961 -52.328125 65.91015625 C-47.22390715 58.96274862 -42.03812707 52.09246205 -36.75439453 45.28027344 C-34.2660238 42.06266536 -31.79809355 38.82939778 -29.328125 35.59765625 C-28.79445313 34.89979004 -28.26078125 34.20192383 -27.7109375 33.48291016 C-24.53815745 29.33210393 -21.37085398 25.17716905 -18.20703125 21.01953125 C-17.4898291 20.07722656 -16.77262695 19.13492188 -16.03369141 18.1640625 C-14.6330538 16.32335215 -13.23296513 14.48222395 -11.83349609 12.640625 C-10.57878041 10.99158808 -9.31936118 9.34611421 -8.05419922 7.70507812 C-6.75825021 5.99927882 -5.52005626 4.24970214 -4.30078125 2.48828125 C-2.453125 0.59765625 -2.453125 0.59765625 0 0 Z " fill="#00C7C7" transform="translate(355.453125,781.40234375)"/>
<path d="M0 0 C-0.55455768 7.02439723 -2.59200622 13.11139029 -4.875 19.75 C-34.17437693 108.63721428 -44.48147644 204.55517051 -76.640625 493.73046875 C-76.92618477 499.17497756 -77.38764712 504.58285292 -78 510 C-78.99 510 -79.98 510 -81 510 C-81.37584229 508.94651367 -81.75168457 507.89302734 -82.13891602 506.80761719 C-100.06214657 456.68905325 -120.85886716 408.07024039 -145.75 361 C-151.36951993 350.36200129 -156.80370822 339.63392705 -162.1875 328.875 C-162.68823029 327.87487885 -163.18896057 326.87475769 -163.7048645 325.84432983 C-171.92317822 309.40297202 -179.73202197 292.82428467 -187.20214844 276.03222656 C-200.42131841 246.34147885 -214.10184983 217.05275641 -230.35693359 188.87597656 C-232.05251215 185.90808423 -233.71250018 182.92271023 -235.36328125 179.9296875 C-246.51503372 159.72288979 -258.68944712 140.19640363 -271.02734375 120.69921875 C-271.50155762 119.94946777 -271.97577148 119.1997168 -272.46435547 118.42724609 C-273.56671216 116.68485656 -274.67001339 114.94306448 -275.77392578 113.20166016 C-277.60621096 110.30540521 -279.42898519 107.40335118 -281.25 104.5 C-281.82387451 103.59660889 -282.39774902 102.69321777 -282.98901367 101.76245117 C-283.51342041 100.92302979 -284.03782715 100.0836084 -284.578125 99.21875 C-285.04637695 98.47560547 -285.51462891 97.73246094 -285.99707031 96.96679688 C-287 95 -287 95 -287 92 C-286.15107178 91.98541748 -285.30214355 91.97083496 -284.42749023 91.95581055 C-223.96124629 90.80139194 -182.54636502 67.58717705 -132.25 35.625 C-130.91388672 34.79597168 -130.91388672 34.79597168 -129.55078125 33.95019531 C-125.35997575 31.31691016 -121.49565338 28.64548109 -117.79296875 25.35546875 C-102.56818632 12.54695949 -83.85872234 14.01312647 -64.92233276 13.3474884 C-45.2998602 12.6189816 -24.55125085 8.68752806 -6.4440918 0.90087891 C-4 0 -4 0 0 0 Z " fill="#C2C2C3" transform="translate(732,710)"/>
<path d="M0 0 C6.91741732 4.04563676 12.36300171 8.94673735 17.96142578 14.6484375 C18.8115625 15.48310547 19.66169922 16.31777344 20.53759766 17.17773438 C25.58567379 22.25699554 29.57739584 27.40466163 33.27905273 33.53051758 C35.0448773 36.40146051 37.06325733 38.92031853 39.27392578 41.4609375 C50.92735407 55.43704221 50.92735407 55.43704221 50.61767578 60.53125 C49.74810819 63.03528259 48.69549744 64.81820135 47.14892578 66.9609375 C45.11005276 70.05549084 45.11005276 70.05549084 44.77392578 73.7109375 C45.906928 76.26019249 46.75433644 78.01098917 48.77392578 79.9609375 C52.30313697 81.13734123 54.18296585 81.16211535 57.71142578 79.9609375 C60.28272426 78.28172216 61.87582435 76.90102409 63.93334961 74.70776367 C67.70922212 70.87996789 71.80241193 67.95381676 76.28564453 65.01171875 C77.09395218 64.4729863 77.90225983 63.93425385 78.73506165 63.37919617 C80.44280101 62.24348257 82.15315252 61.11168795 83.8659668 59.98364258 C86.41525482 58.30386056 88.95552512 56.61114119 91.49462891 54.91601562 C100.02737056 49.24403727 108.64442235 43.7333229 117.41845703 38.44140625 C118.60564583 37.72287224 118.60564583 37.72287224 119.81681824 36.98982239 C136.18671078 27.22556123 136.18671078 27.22556123 145.77392578 25.9609375 C146.44552734 25.86554687 147.11712891 25.77015625 147.80908203 25.671875 C152.89352425 25.31073705 157.65618738 26.45837578 162.52392578 27.8359375 C163.77689453 28.18398438 165.02986328 28.53203125 166.32080078 28.890625 C172.43990931 31.66393476 174.47458792 40.00775673 176.72753906 45.89038086 C177.35555614 47.60841103 177.97757639 49.32864268 178.59423828 51.05078125 C178.93491837 51.98523071 179.27559845 52.91968018 179.62660217 53.88244629 C180.34964956 55.86569721 181.07037508 57.849796 181.78890991 59.83468628 C186.96112255 74.11049369 192.17340572 88.3591692 197.96142578 102.3984375 C198.40220459 103.46827881 198.8429834 104.53812012 199.29711914 105.64038086 C201.00428225 109.75937153 202.73182721 113.86854277 204.49267578 117.96484375 C213.16834509 138.61570554 226.06178211 170.4179683 217.77392578 192.9609375 C212.19017802 200.55710197 202.11939562 205.50100104 194.21728516 210.43408203 C191.67192155 212.02467995 189.13694169 213.63105456 186.60205078 215.23828125 C152.65435626 236.65115415 152.65435626 236.65115415 136.96142578 233.9609375 C125.19282177 231.13698366 115.78501872 224.82594549 106.77392578 216.9609375 C105.89091797 216.22230469 105.00791016 215.48367188 104.09814453 214.72265625 C96.5566542 208.20518724 90.66183523 200.93602283 84.77392578 192.9609375 C84.25540039 192.26403809 83.736875 191.56713867 83.20263672 190.84912109 C75.83424928 180.91752732 68.88690902 170.77080829 62.27197266 160.32421875 C60.60767365 157.6986623 58.93344122 155.07958947 57.25830078 152.4609375 C53.74890379 146.97014282 50.25745139 141.46817377 46.77392578 135.9609375 C46.32791016 135.25791504 45.88189453 134.55489258 45.42236328 133.83056641 C44.30457138 132.06508621 43.19380659 130.29546042 42.08642578 128.5234375 C41.50505859 127.59660156 40.92369141 126.66976563 40.32470703 125.71484375 C38.77392578 122.9609375 38.77392578 122.9609375 37.44189453 119.61328125 C35.93945769 115.96911497 33.75271596 113.13841227 31.33935547 110.04541016 C28.74191603 106.5867486 26.60106816 102.8660284 24.39892578 99.1484375 C18.91588114 90.05610058 13.05872722 81.60172569 6.14892578 73.5234375 C-24.38774271 37.3318304 -24.38774271 37.3318304 -23.03857422 20.0859375 C-21.68449773 6.08389386 -21.68449773 6.08389386 -17.30810547 2.3046875 C-11.70824424 -1.16510603 -6.17581682 -2.88268001 0 0 Z " fill="#EAD5AC" transform="translate(201.22607421875,935.0390625)"/>
<path d="M0 0 C1.23161865 0.27320068 2.4632373 0.54640137 3.73217773 0.82788086 C31.71767904 7.19290574 58.44165158 17.68262693 85.03393555 28.3269043 C121.21485633 42.80464794 157.39418751 54.84371907 195.98745728 60.7255249 C208.93253258 62.69985807 221.71177002 65.18445391 234.5 68 C235.34537323 68.1840036 236.19074646 68.3680072 237.06173706 68.55758667 C245.87011396 70.48283435 254.60408245 72.57942254 263.265625 75.08984375 C263.97724792 75.29436661 264.68887085 75.49888947 265.42205811 75.70960999 C268.59321568 76.65608685 270.97200393 77.58550262 273.75 79.4375 C273.54134389 82.34770365 273.31859076 85.25595759 273.08203125 88.1640625 C272.831674 91.26140265 272.63364783 94.35901598 272.44921875 97.4609375 C271.40739781 113.09249819 268.36978237 127.80831815 261.77490234 142.0847168 C260.66397414 144.63498243 259.75186391 147.21476718 258.84375 149.84375 C256.81611957 155.51638143 254.18007935 160.68351497 251.25 165.9375 C250.73171631 166.87295654 250.21343262 167.80841309 249.67944336 168.7722168 C246.00666667 175.3338683 242.23482906 181.83433111 238.3125 188.25 C237.82910156 189.06210937 237.34570312 189.87421875 236.84765625 190.7109375 C233.49416932 196.06720135 233.49416932 196.06720135 230.30859375 197.65234375 C226.7136845 197.35048114 224.36818781 195.97972944 221.25 194.1875 C220.1465625 193.56359375 219.043125 192.9396875 217.90625 192.296875 C216.02686019 191.18970972 214.15062533 190.0771165 212.28125 188.953125 C210.37571163 187.8121545 208.43712913 186.72609987 206.484375 185.66796875 C202.00365499 183.11395834 198.03630709 179.94519499 194 176.75 C193.20432617 176.12496582 192.40865234 175.49993164 191.58886719 174.85595703 C185.58055975 170.12432329 179.61005498 165.35211006 173.75 160.4375 C173.23050781 160.0029248 172.71101562 159.56834961 172.17578125 159.12060547 C163.40244805 151.76092415 154.97140313 144.08412696 146.64550781 136.22412109 C142.88126148 132.67611045 139.09537322 129.15118459 135.30932617 125.62646484 C132.2436723 122.77117148 129.18752551 119.90722124 126.15234375 117.01953125 C103.31964372 95.37380418 78.02019091 85.04603256 48.94873047 73.99121094 C-18.75206752 48.21526106 -18.75206752 48.21526106 -32.25 25.4375 C-34.87024401 18.82450322 -35.4330675 11.79990238 -33.0625 5.0625 C-25.00153649 -6.61199887 -11.96403263 -2.68992516 0 0 Z " fill="#E9D4AC" transform="translate(539.25,328.5625)"/>
<path d="M0 0 C2.2734375 -0.2734375 2.2734375 -0.2734375 5 0 C8.27982599 3.14143671 10.55374765 7.1873549 13 11 C13.47405273 11.72832031 13.94810547 12.45664063 14.43652344 13.20703125 C15.97574359 15.58537783 17.49185139 17.97684431 19 20.375 C19.49322754 21.14763184 19.98645508 21.92026367 20.49462891 22.71630859 C24.94666548 29.95578937 24.94666548 29.95578937 24 34 C22.53125 36.40234375 22.53125 36.40234375 20.5 38.9375 C13.17408184 48.61030522 7.83611116 58.31512221 4.10546875 69.84375 C2.97986554 73.05748638 1.52245851 75.95934757 0 79 C-0.66680368 82.04279372 -0.66680368 82.04279372 0 85 C2.0424351 88.04273417 2.0424351 88.04273417 5 90 C7.63537508 90.00635246 7.63537508 90.00635246 10 89 C10.99 88.67 11.98 88.34 13 88 C14.05303994 85.36283824 14.05303994 85.36283824 15 82 C24.15601185 57.60898483 24.15601185 57.60898483 31 50 C33.4609375 49.265625 33.4609375 49.265625 36 50 C37.76523199 52.12933141 39.05696257 54.06651016 40.4375 56.4375 C41.39224279 57.98919413 42.35096179 59.53844509 43.3125 61.0859375 C44.15361328 62.4486377 44.15361328 62.4486377 45.01171875 63.83886719 C49.1971957 70.49328216 53.57719291 77.0218573 57.9375 83.5625 C58.42099915 84.28857452 58.90449829 85.01464905 59.40264893 85.76272583 C66.28899242 96.09195302 73.27675528 106.27215513 81 116 C82.15242188 117.48306641 82.15242188 117.48306641 83.328125 118.99609375 C98.14341863 137.67061597 118.41426563 155.7120283 143 159 C151.83398335 159.69074906 159.81330791 159.70718133 168 156 C171.5 155.8125 171.5 155.8125 174 156 C174.36284925 159.23162612 174.32043115 160.58017586 172.3125 163.2109375 C171.1678125 164.28214844 171.1678125 164.28214844 170 165.375 C169.17242187 166.15746094 168.34484375 166.93992187 167.4921875 167.74609375 C164.73713865 170.23772883 161.9723505 172.71095986 159.15234375 175.12890625 C156.61947838 177.33079829 154.15667478 179.60195826 151.6875 181.875 C147.22260974 185.94737244 142.63391845 189.80628598 137.9296875 193.59765625 C135.26149419 195.78557476 132.65486513 198.0255547 130.0559082 200.29418945 C109.83785908 217.90181409 89.16340685 235.47279289 61 234 C32.87343102 231.21405762 3.00876207 202.48768674 -14.6015625 181.96875 C-32.93712266 158.66603141 -36.1222511 125.51211646 -33.09863281 96.81445312 C-28.95062161 62.94953496 -14.72670667 30.45864928 0 0 Z " fill="#00BFBF" transform="translate(196,1027)"/>
<path d="M0 0 C3.27627152 28.08017295 2.31469204 64.80588256 -15.75 88.25 C-23.38780638 97.10521764 -31.81515455 104.78773881 -41 112 C-42.0430636 112.83451688 -43.08602983 113.66915546 -44.12890625 114.50390625 C-57.488909 125.10521832 -71.02384611 132.17066364 -87 138 C-88.27738037 138.47034668 -88.27738037 138.47034668 -89.58056641 138.95019531 C-116.72884204 148.82511561 -159.46650142 161.53339434 -188 151 C-194.62425202 146.9696834 -195.92690001 141.68131381 -198.125 134.5 C-201.91249166 122.80621362 -206.35796992 111.55037809 -211.18994141 100.2578125 C-211.6854248 99.09121094 -212.1809082 97.92460938 -212.69140625 96.72265625 C-213.13685791 95.68890869 -213.58230957 94.65516113 -214.04125977 93.59008789 C-215 91 -215 91 -215 88 C-214.00484375 87.85304688 -213.0096875 87.70609375 -211.984375 87.5546875 C-156.85880051 78.91620462 -100.74703269 49.55691211 -51.98461914 23.23388672 C-38.98282837 16.22224323 -25.48225299 10.27579702 -11.99945068 4.25828552 C-9.54925348 3.16234496 -7.1239755 2.06596936 -4.75366211 0.8046875 C-3 0 -3 0 0 0 Z " fill="#FEFEFE" transform="translate(587,600)"/>
<path d="M0 0 C4.14906367 1.85594299 6.50485559 4.16337668 8.8125 8.0625 C12.49229007 18.66046355 12.34361298 29.93623653 12.31567383 41.00634766 C12.31253064 43.59971888 12.33599112 46.19192649 12.36132812 48.78515625 C12.42681556 66.29348276 10.53548721 84.98708968 3 101 C2.5875 102.03125 2.175 103.0625 1.75 104.125 C1.17949807 105.4223851 0.59377245 106.71309875 0 108 C-0.43699219 108.94875 -0.87398437 109.8975 -1.32421875 110.875 C-5.592793 119.47416169 -10.92646683 125.87460356 -17.65185547 132.64160156 C-18.76491038 133.7631223 -19.85621945 134.90617994 -20.94140625 136.0546875 C-25.86272362 141.20131819 -31.40458877 145.61369701 -37 150 C-37.60553711 150.47663086 -38.21107422 150.95326172 -38.83496094 151.44433594 C-66.36028781 172.97926422 -98.93673956 184.33782331 -133 191 C-133.84272461 191.16661133 -134.68544922 191.33322266 -135.55371094 191.50488281 C-148.03584373 193.85899064 -160.45979479 194.30398944 -173.125 194.375 C-174.24834244 194.38691879 -174.24834244 194.38691879 -175.39437866 194.39907837 C-189.62285681 194.51527146 -201.40840199 192.99316117 -212.6875 183.8125 C-218.13198768 177.1908258 -220.53530448 169.51348609 -223.109375 161.4609375 C-227.07835436 149.30854501 -232.01574458 137.63422095 -237.04589844 125.89160156 C-238.1805438 123.23521892 -239.30535249 120.57482166 -240.4296875 117.9140625 C-240.77442108 117.11924469 -241.11915466 116.32442688 -241.47433472 115.50552368 C-243.83582257 109.91154112 -245.99370967 104.71962646 -243.8125 98.75 C-241.95428 95.93063173 -240.89689858 94.66980699 -238 93 C-235.46415163 92.72085099 -233.10012361 92.59009563 -230.5625 92.5625 C-210.2645875 91.7906324 -190.53520095 86.30609431 -172.09423828 77.91943359 C-169.14130266 76.62300604 -166.11712549 75.59258958 -163.0625 74.5625 C-157.94993265 72.77419854 -153.23070772 70.71045093 -148.4453125 68.19140625 C-144.9184311 66.47303752 -141.26038031 65.23315502 -137.54296875 63.9921875 C-134.81049133 62.9260596 -132.49014058 61.5415156 -130 60 C-127.67467421 58.97149052 -125.34634011 57.9772483 -123 57 C-117.41828202 54.59892578 -111.96034068 52.02172375 -106.5546875 49.24609375 C-104.70411219 48.3434431 -102.82005916 47.50840474 -100.91943359 46.71655273 C-96.41147447 44.79246493 -92.08416727 42.54338511 -87.734375 40.2890625 C-86.4233078 39.6140419 -86.4233078 39.6140419 -85.08575439 38.92538452 C-81.37609817 37.01540069 -77.66924825 35.10000129 -73.96240234 33.18457031 C-54.01591949 22.88529078 -54.01591949 22.88529078 -45 19 C-37.54329116 15.75758039 -30.32710341 12.14518735 -23.125 8.375 C-22.2086377 7.89530762 -21.29227539 7.41561523 -20.34814453 6.92138672 C-16.87349001 5.09036594 -13.44212279 3.27602801 -10.109375 1.1953125 C-6.7996851 -0.68017844 -3.63812424 -0.72486346 0 0 Z M-13.97265625 24.765625 C-14.77541992 25.15435791 -15.57818359 25.54309082 -16.40527344 25.94360352 C-17.2821582 26.37471436 -18.15904297 26.8058252 -19.0625 27.25 C-25.01914332 30.14005598 -30.97849745 33.0108542 -37.01171875 35.73828125 C-49.24176005 41.26831102 -61.22733286 47.10863203 -73.125 53.3125 C-118.96249099 77.17637585 -170.37956601 103.93137273 -222 111 C-221.43764846 115.12542301 -220.5076307 118.5617885 -218.8125 122.359375 C-218.36543701 123.38071533 -217.91837402 124.40205566 -217.45776367 125.4543457 C-216.97670166 126.54191162 -216.49563965 127.62947754 -216 128.75 C-211.44001222 139.20229929 -207.51118143 149.72820007 -204.16992188 160.63378906 C-202.16379161 166.84966441 -200.68026639 170.56137131 -195 174 C-164.63884908 185.20808842 -119.61820122 170.6217832 -91 160 C-90.06849121 159.65453125 -89.13698242 159.3090625 -88.17724609 158.953125 C-69.54714758 151.88483068 -54.82309346 141.10131892 -40 128 C-39.10667969 127.22914063 -38.21335937 126.45828125 -37.29296875 125.6640625 C-18.5947039 109.29230987 -10.32135142 90.33083014 -7 66 C-6.88914062 65.22914063 -6.77828125 64.45828125 -6.6640625 63.6640625 C-5.89859692 57.10588446 -5.89805459 50.53166235 -5.875 43.9375 C-5.86799072 42.55437622 -5.86799072 42.55437622 -5.86083984 41.14331055 C-5.87497412 35.04002132 -6.2795197 29.06007632 -7 23 C-10.1097427 23 -11.24936339 23.43020333 -13.97265625 24.765625 Z " fill="#080807" transform="translate(594,577)"/>
<path d="M0 0 C3.02882878 2.13021542 5.12692427 4.50867552 7.53125 7.32421875 C20.43693289 21.86417798 36.78644112 31.19485003 54.21875 39.32421875 C70.89516741 47.13057474 86.12963832 56.80229673 94.59375 73.82421875 C95.79565901 77.42994579 95.92045315 80.03446225 95.59375 83.82421875 C93.77307723 86.92610569 92.54009508 88.42575766 89.21875 89.82421875 C85.62457308 89.82421875 83.67574341 88.65317949 80.59375 86.82421875 C78.3984375 84.30078125 78.3984375 84.30078125 76.46875 81.44921875 C67.77710904 68.77827229 57.38838145 62.46087348 43.82519531 55.91015625 C26.9709226 47.7079894 12.42094526 38.57342364 -1.52246094 26.02612305 C-2.41433105 25.22815308 -2.41433105 25.22815308 -3.32421875 24.4140625 C-3.84781982 23.93831787 -4.3714209 23.46257324 -4.91088867 22.97241211 C-6.5261848 21.6026046 -6.5261848 21.6026046 -9.40625 20.82421875 C-9.80070312 21.67693359 -9.80070312 21.67693359 -10.203125 22.546875 C-11.49202679 24.98658197 -13.00300518 27.0536688 -14.65625 29.26171875 C-29.10902659 49.7714681 -33.06007968 75.12222857 -33.8359375 99.6171875 C-33.90961182 101.65041043 -33.98384839 103.68361304 -34.05859375 105.71679688 C-34.17146956 108.85801836 -34.28085327 111.99919437 -34.38037109 115.14086914 C-35.49770929 149.82468173 -35.49770929 149.82468173 -43.40625 157.82421875 C-47.52953692 159.14956097 -49.39265623 159.33101564 -53.28125 157.38671875 C-56.08297208 154.00817153 -56.57792864 151.09313752 -56.40625 146.82421875 C-56.10593434 145.45811733 -55.77348495 144.09888007 -55.41796875 142.74609375 C-53.69258194 134.5173259 -54.19678616 126.06273264 -54.28125 117.69921875 C-54.29129968 115.96224474 -54.30042202 114.22526511 -54.30859375 112.48828125 C-54.33045026 108.26678625 -54.36487049 104.04556568 -54.40625 99.82421875 C-60.80473146 97.35285152 -66.99198765 95.17913312 -73.78125 94.13671875 C-74.53744629 94.0186084 -75.29364258 93.90049805 -76.07275391 93.77880859 C-95.92728336 90.88580094 -113.93489797 92.34395668 -133.40625 96.82421875 C-131.1301908 101.66084455 -128.60317722 106.13447906 -125.71875 110.63671875 C-114.8408907 128.21955278 -100.79022989 155.38638523 -104.40625 176.82421875 C-106.20018668 179.69451744 -107.38888276 181.31553513 -110.40625 182.82421875 C-114.00770025 183.22437989 -115.85730693 183.15991535 -118.98046875 181.25 C-122.06392845 178.1665403 -122.51381925 175.94684585 -123.40625 171.69921875 C-123.72956486 170.25991935 -124.05517446 168.82113394 -124.3828125 167.3828125 C-124.54813477 166.63499512 -124.71345703 165.88717773 -124.88378906 165.11669922 C-128.96174622 147.223233 -134.95432346 131.43119236 -144.8203125 115.91796875 C-149.32926647 108.82060274 -152.52644159 103.46489142 -152.65625 94.88671875 C-152.68203125 93.86707031 -152.7078125 92.84742188 -152.734375 91.796875 C-152.34192653 88.24147873 -151.6606451 86.60555579 -149.40625 83.82421875 C-143.94591078 79.96116948 -138.37968893 78.56050907 -131.90625 77.13671875 C-130.99488281 76.92466797 -130.08351563 76.71261719 -129.14453125 76.49414062 C-119.43708548 74.27389509 -110.23512112 73.59785181 -100.28125 73.57421875 C-99.61862152 73.572547 -98.95599304 73.57087524 -98.27328491 73.56915283 C-86.44973639 73.56737226 -75.02983826 74.63988391 -63.40625 76.82421875 C-62.18808594 77.04851562 -60.96992188 77.2728125 -59.71484375 77.50390625 C-57.86396418 77.84902556 -56.01536913 78.20723176 -54.171875 78.58984375 C-53.58921875 78.6671875 -53.0065625 78.74453125 -52.40625 78.82421875 C-50.6641816 77.08215035 -50.89216317 74.69433787 -50.55761719 72.3527832 C-46.72250974 45.85793787 -36.97059611 18.10717643 -15.40625 0.82421875 C-10.2675919 -1.29321825 -5.20593926 -2.54381123 0 0 Z " fill="#000000" transform="translate(401.40625,190.17578125)"/>
<path d="M0 0 C4.84080491 3.464689 6.59130657 7.02252951 7.5625 12.8125 C9.50988081 42.65463564 4.00072686 77.33089208 -16.1875 100.625 C-19.89658474 104.60759639 -22.4941599 106.56958249 -27.9375 107.25 C-31.4375 106.8125 -31.4375 106.8125 -33.8125 104.5625 C-35.26822701 102.09896199 -36.0264075 100.59000961 -36.4375 97.8125 C-34.54201732 93.15277175 -32.33941302 89.59568601 -29.125 85.75 C-20.6484704 75.13164922 -16.71371491 61.79437347 -13.4375 48.8125 C-13.08365234 47.43578125 -13.08365234 47.43578125 -12.72265625 46.03125 C-10.6573684 36.50379074 -10.77016237 26.52326612 -10.4375 16.8125 C-11.17758301 16.96807373 -11.91766602 17.12364746 -12.68017578 17.28393555 C-27.85992106 20.43722156 -42.98514557 23.13476588 -58.37780762 25.01473999 C-96.65388286 29.22357989 -96.65388286 29.22357989 -129.4375 47.8125 C-130.21738281 48.51375 -130.99726562 49.215 -131.80078125 49.9375 C-137.91442057 55.70093084 -142.28723455 61.42711297 -144.4375 69.625 C-145.67645918 73.57418239 -146.8350746 74.81115256 -150.4375 76.8125 C-154.33658817 77.35974045 -156.42650659 77.57074506 -159.625 75.171875 C-163.05800123 70.70305443 -161.94802435 65.18269913 -161.4375 59.8125 C-160.14103445 52.47425326 -155.16347673 47.30901642 -150.4375 41.8125 C-149.52484375 40.66394531 -149.52484375 40.66394531 -148.59375 39.4921875 C-129.81475653 16.65502171 -96.63565795 10.49485775 -68.7890625 7.171875 C-66.48485475 7.05724434 -66.48485475 7.05724434 -65.4375 5.8125 C-63.03836617 5.48670582 -60.65444996 5.21710908 -58.24609375 4.98046875 C-56.72717085 4.82006523 -55.20829214 4.65924279 -53.68945312 4.49804688 C-51.30781877 4.24993475 -48.92600396 4.00506782 -46.54321289 3.76831055 C-36.70974912 2.78277872 -27.36441633 1.28778849 -17.82641602 -1.33447266 C-11.26134296 -2.98697357 -5.98720552 -3.42126029 0 0 Z " fill="#010101" transform="translate(733.4375,203.1875)"/>
<path d="M0 0 C7.4491051 1.00692764 7.4491051 1.00692764 10.953125 1.96459961 C11.9908606 2.24641335 11.9908606 2.24641335 13.04956055 2.53392029 C16.20671699 3.42122469 19.36172206 4.31508965 22.51220703 5.22583008 C24.15327301 5.69528124 25.79748911 6.15387487 27.44482422 6.60083008 C39.52770503 9.882345 48.99971563 14.44466557 59 22 C58.48037338 26.29138573 57.57500627 29.21446401 55.2265625 32.8359375 C54.36804688 34.17386353 54.36804688 34.17386353 53.4921875 35.53881836 C52.87601563 36.4747583 52.25984375 37.41069824 51.625 38.375 C50.9959375 39.3451001 50.366875 40.3152002 49.71875 41.31469727 C47.82674743 44.21948613 45.91779512 47.11218674 44 50 C43.45827148 50.8161377 42.91654297 51.63227539 42.35839844 52.47314453 C40.91544052 54.63480471 39.46207465 56.78873261 38 58.9375 C37.58057129 59.55608887 37.16114258 60.17467773 36.72900391 60.81201172 C28.80174826 72.27928936 18.49398825 81.61329674 6 88 C4.68 88 3.36 88 2 88 C0.40943351 84.81886702 0.81992203 81.37405738 0.79467773 77.87841797 C0.78477814 77.03931885 0.77487854 76.20021973 0.76467896 75.33569336 C0.73302208 72.55455371 0.70829 69.77339696 0.68359375 66.9921875 C0.66302784 65.06690012 0.64203146 63.14161729 0.62062073 61.21633911 C0.56536259 56.14304282 0.51596983 51.06970553 0.46777344 45.99633789 C0.41758571 40.82174012 0.36188542 35.64720206 0.30664062 30.47265625 C0.1990133 20.31515515 0.0975785 10.15760226 0 0 Z " fill="#2A2A2A" transform="translate(686,513)"/>
<path d="M0 0 C3.4608412 1.30461029 6.73909962 2.16713806 10.35546875 2.90625 C21.36312181 5.35522959 21.36312181 5.35522959 24.73046875 10.40625 C25.03445147 14.58601235 25.19783309 17.89999541 22.73046875 21.40625 C19.05974115 23.85340174 15.99474661 23.93733222 11.73046875 23.40625 C10.06360154 22.74008492 8.39697281 22.07332305 6.73046875 21.40625 C3.25772286 20.49069134 -0.25849712 19.75616626 -3.76757812 18.99414062 C-7.3136236 18.19588286 -10.66552511 17.30638755 -14.0390625 15.9453125 C-19.41002607 13.84760029 -25.00330384 12.83285876 -30.64453125 11.71875 C-31.71703125 11.49380859 -32.78953125 11.26886719 -33.89453125 11.03710938 C-43.52168174 9.03855161 -43.52168174 9.03855161 -53.26953125 9.40625 C-63.02758056 16.09259629 -68.77797021 32.15045638 -73.625 42.4765625 C-73.91169556 43.08455185 -74.19839111 43.6925412 -74.49377441 44.31895447 C-75.92311371 47.35494521 -77.33220357 50.39678414 -78.71533203 53.4543457 C-79.23466309 54.57156006 -79.75399414 55.68877441 -80.2890625 56.83984375 C-80.74385986 57.84072021 -81.19865723 58.84159668 -81.66723633 59.87280273 C-83.53335101 62.82338509 -85.1314074 63.93367751 -88.26953125 65.40625 C-91.66093553 65.82152399 -93.52013197 65.82258293 -96.51953125 64.15625 C-98.39844513 62.27733612 -99.42888514 60.92818833 -100.26953125 58.40625 C-98.51694501 49.69642748 -94.15860171 41.59239457 -90.34228516 33.64404297 C-89.59510261 32.08540046 -88.85296746 30.52433251 -88.11474609 28.96142578 C-81.04613037 14.03879258 -73.74079539 -0.88414267 -58.95703125 -9.53125 C-41.59756172 -14.53313105 -16.28412169 -6.30805288 0 0 Z " fill="#070705" transform="translate(560.26953125,502.59375)"/>
<path d="M0 0 C9.78131304 1.13078764 16.49983984 8.27750943 23.48046875 14.73046875 C26.75414259 17.67931294 30.19200391 20.38323608 33.67578125 23.078125 C36.29473229 25.24371141 38.62444108 27.56879109 41 30 C43.4543582 32.48311605 45.91488215 34.96009217 48.375 37.4375 C49.00921875 38.08009766 49.6434375 38.72269531 50.296875 39.38476562 C53.94840423 43.0549251 57.65464811 46.47110025 61.73681641 49.66040039 C63 51 63 51 63 54 C56.20057325 53.43673388 50.23006306 51.64483854 43.8125 49.375 C42.79309326 49.015271 41.77368652 48.65554199 40.72338867 48.28491211 C23.47626663 42.04805185 5.79603926 32.33968432 -3.5625 15.875 C-5.31135118 11.96534603 -5.25319113 9.15119561 -4 5 C-1.9375 2.0625 -1.9375 2.0625 0 0 Z " fill="#CBB995" transform="translate(621,437)"/>
<path d="M0 0 C3.30859375 1.41015625 3.30859375 1.41015625 6.4375 3.0625 C7.48808594 3.61035156 8.53867187 4.15820312 9.62109375 4.72265625 C10.40613281 5.14417969 11.19117188 5.56570313 12 6 C9.2945351 9.54782341 5.51220791 10.31547557 1.41015625 11.48046875 C0.66922226 11.69818436 -0.07171173 11.91589996 -0.83509827 12.14021301 C-2.39970163 12.5977116 -3.96570002 13.05046248 -5.53295898 13.4987793 C-7.92848614 14.1849182 -10.31886349 14.88708386 -12.70898438 15.59179688 C-14.23149277 16.0348109 -15.75427084 16.47689941 -17.27734375 16.91796875 C-17.99099594 17.12729538 -18.70464813 17.33662201 -19.43992615 17.55229187 C-22.80333998 18.50770128 -25.46808335 19 -29 19 C-27.70682304 11.9864167 -21.399402 8.09609473 -15.84448242 4.2487793 C-15.23580322 3.83668213 -14.62712402 3.42458496 -14 3 C-13.41903564 2.58983643 -12.83807129 2.17967285 -12.23950195 1.75708008 C-7.77987515 -1.14527634 -5.08099903 -1.38051946 0 0 Z " fill="#00CBCB" transform="translate(855,642)"/>
<path d="M0 0 C0.66 0 1.32 0 2 0 C2 0.66 2 1.32 2 2 C1.34 2 0.68 2 0 2 C0 1.34 0 0.68 0 0 Z " fill="#000000" transform="translate(1034,293)"/>
<path d="" fill="#00FFFF" transform="translate(0,0)"/>
<path d="" fill="#000000" transform="translate(0,0)"/>
</svg>
