<?xml version="1.0" encoding="UTF-8"?>
<svg version="1.1" xmlns="http://www.w3.org/2000/svg" width="1280" height="1280">
<path d="M0 0 C1.22783203 0.01933594 1.22783203 0.01933594 2.48046875 0.0390625 C5.037279 0.40738022 6.66307689 0.94205126 8.8125 2.375 C9.74265961 4.37312064 10.65658424 6.38010056 11.49609375 8.41796875 C19.60661399 26.63655576 31.5762568 40.68665011 47.05859375 53.1328125 C59.7040551 63.42854982 70.74649344 74.79092538 80.57861328 87.75195312 C82.36456432 90.10118196 84.18296329 92.42477797 86 94.75 C86.93787819 95.95803982 87.87555076 97.16623955 88.8125 98.375 C89.34875 97.9625 89.885 97.55 90.4375 97.125 C97.54619778 91.88701216 105.05389027 87.96217157 113.01757812 84.21923828 C114.47211186 83.53510095 115.91728261 82.83108095 117.359375 82.12109375 C122.78351792 79.66868871 128.4479564 78.45495416 134.25 77.25 C135.00571289 77.09112305 135.76142578 76.93224609 136.54003906 76.76855469 C155.20716153 73.15089529 174.3883715 72.69143109 193.32617188 71.77319336 C214.3092883 70.74315171 235.42069562 69.5642453 255.8125 64.1875 C274.04941023 59.46065378 274.04941023 59.46065378 282.9609375 63.27734375 C288.68174298 66.66879172 291.26908856 71.75552538 293.19946289 77.90722656 C294.21933352 82.01270341 294.38654922 85.96972351 294.375 90.1875 C294.37258301 91.15397461 294.37016602 92.12044922 294.36767578 93.11621094 C293.78911362 117.65783452 287.49020555 142.60531308 281.8125 166.375 C283.00359375 166.21644531 284.1946875 166.05789062 285.421875 165.89453125 C311.12324208 162.71852825 334.17708971 172.30166836 357.02929688 182.87768555 C365.82983483 186.9164704 374.38296048 189.84660142 383.94677734 191.40185547 C392.04770809 192.73487269 398.66178315 194.54804276 404.203125 200.9921875 C410.3525142 209.69660461 408.92970607 223.28291477 407.34814453 233.32275391 C401.11934251 263.55573133 387.61889501 294.66426429 367.8125 318.375 C367.29816406 319.01308594 366.78382813 319.65117187 366.25390625 320.30859375 C362.5300264 324.83981883 358.30896297 328.62033929 353.8125 332.375 C354.35777344 333.04402344 354.90304687 333.71304687 355.46484375 334.40234375 C365.92969684 347.72937888 372.37822512 362.47095035 378.86230469 378.04785156 C385.07107591 392.89909251 392.29203717 406.37481731 404.11328125 417.58984375 C411.27897707 425.11794257 415.35287882 432.25112793 415.38037109 442.65820312 C415.22970393 446.8850832 414.65951073 449.62139659 411.9375 452.875 C409.98828125 454.6796875 409.98828125 454.6796875 407.8125 456.375 C407.06355469 456.97570312 406.31460938 457.57640625 405.54296875 458.1953125 C391.17159821 468.92160198 375.37798537 473.52855894 357.8125 475.375 C354.58674063 494.3941435 352.52368269 512.83092728 352.5625 532.125 C352.56336609 532.93515564 352.56423218 533.74531128 352.56512451 534.58001709 C352.58876794 543.13698649 352.84290054 551.59352291 353.58105469 560.12255859 C353.98749662 565.83418246 354.0361863 571.54718634 354.05273438 577.27075195 C354.06260849 579.3351835 354.09385318 581.39868365 354.125 583.46289062 C354.13151828 584.79686924 354.13677334 586.13085477 354.140625 587.46484375 C354.1499707 588.64941162 354.15931641 589.83397949 354.16894531 591.05444336 C353.64375402 595.94699598 351.94710477 599.20925685 348.53515625 602.71484375 C343.34504433 605.87954614 337.67172551 605.07785826 331.8125 604.375 C327.53207166 603.1872085 323.75578766 601.40311682 319.8125 599.375 C318.56909456 598.76415161 317.3256008 598.15348298 316.08203125 597.54296875 C308.2520696 593.61222951 301.39409857 589.21316219 294.8125 583.375 C293.91273438 582.58351563 293.01296875 581.79203125 292.0859375 580.9765625 C288.58003327 577.85459014 285.10100894 574.72695284 281.8125 571.375 C280.80517601 573.30870231 279.80686712 575.24710306 278.8125 577.1875 C278.255625 578.26644531 277.69875 579.34539063 277.125 580.45703125 C275.60739381 583.29773466 275.60739381 583.29773466 275.8125 586.375 C286.03392657 591.01497833 296.32665971 595.12625877 306.9213562 598.83023071 C369.17160849 620.66229126 369.17160849 620.66229126 384.8125 644.375 C385.95327657 647.79732972 385.91065117 650.46173217 385.875 654.0625 C385.86597656 655.24199219 385.85695313 656.42148437 385.84765625 657.63671875 C385.83605469 658.54035156 385.82445312 659.44398438 385.8125 660.375 C386.65425781 660.58382812 387.49601563 660.79265625 388.36328125 661.0078125 C392.6955445 662.72501764 395.55708121 665.16778068 399 668.25 C399.65564941 668.83080322 400.31129883 669.41160645 400.98681641 670.01000977 C411.94995958 679.86186092 428.08780386 694.49735307 429.04296875 710.15234375 C429.03901779 711.53913084 429.02446143 712.92592304 429 714.3125 C428.99935547 715.00279297 428.99871094 715.69308594 428.99804688 716.40429688 C428.97067798 719.61253944 428.77664435 722.54601935 428.1171875 725.69140625 C427.51466002 728.33771386 427.51466002 728.33771386 428.96484375 730 C429.84849609 730.680625 429.84849609 730.680625 430.75 731.375 C434.32798641 734.5880318 436.67450339 738.14470549 439 742.3125 C439.34417969 742.92536865 439.68835938 743.5382373 440.04296875 744.16967773 C441.80216689 747.36335822 443.34448371 750.57703832 444.75 753.9375 C448.46941016 761.45211616 459.49910701 763.9265275 466.8125 766.6875 C482.93329335 772.97378593 498.36220878 780.61260682 513.8125 788.375 C514.52523071 788.73307739 515.23796143 789.09115479 515.97229004 789.46008301 C628.88174884 846.28146367 628.88174884 846.28146367 645.703125 896.0078125 C659.28629248 939.96089218 665.68382328 992.38503161 643.95703125 1034.71972656 C622.03856365 1075.69508404 570.55920419 1100.49407823 528.20703125 1113.83984375 C511.32507051 1118.84808532 494.32642166 1121.55011265 476.75 1121.6875 C474.88891602 1121.73100586 474.88891602 1121.73100586 472.99023438 1121.77539062 C462.82194132 1121.84611711 462.82194132 1121.84611711 459.06640625 1119.29296875 C454.32476506 1116.4980758 451.09445663 1117.50124349 445.8125 1118.375 C444.43294791 1118.56346154 443.05266823 1118.74663953 441.671875 1118.92578125 C437.70728111 1119.44046503 433.74685376 1119.98107151 429.78710938 1120.53173828 C427.29089451 1120.87799697 424.7939225 1121.21839787 422.296875 1121.55859375 C420.70828431 1121.77829161 419.1197408 1121.99833106 417.53125 1122.21875 C416.78548706 1122.31982056 416.03972412 1122.42089111 415.2713623 1122.52502441 C411.42210226 1123.02982419 411.42210226 1123.02982419 407.8125 1124.375 C415.41429577 1172.36897428 425.71016155 1218.66222783 439.97805786 1265.13146973 C440.21845795 1265.92146362 440.45885803 1266.71145752 440.70654297 1267.52539062 C440.92051727 1268.22233032 441.13449158 1268.91927002 441.35494995 1269.6373291 C441.8125 1271.375 441.8125 1271.375 441.8125 1273.375 C246.1225 1273.375 50.4325 1273.375 -151.1875 1273.375 C-151.86221404 1270.00142982 -152.35356476 1267.07559984 -152.58203125 1263.69921875 C-153.63826675 1249.41957974 -155.61734202 1235.45849302 -158.1875 1221.375 C-158.9412793 1221.53653564 -159.69505859 1221.69807129 -160.47167969 1221.86450195 C-163.8288615 1222.49555797 -167.02199108 1222.54493051 -170.4375 1222.5625 C-171.68015625 1222.57667969 -172.9228125 1222.59085938 -174.203125 1222.60546875 C-177.53078926 1222.41298621 -179.45287253 1221.97499158 -182.5078125 1220.96875 C-186.6609302 1219.98056689 -188.70194235 1220.7788861 -192.3515625 1222.92578125 C-194.18968862 1224.15342568 -196.00945811 1225.40888418 -197.8125 1226.6875 C-199.76611883 1227.99990188 -201.72054773 1229.31109868 -203.67578125 1230.62109375 C-204.62018066 1231.26675293 -205.56458008 1231.91241211 -206.53759766 1232.57763672 C-217.48918074 1240.00582491 -229.01997272 1246.1773336 -241.1875 1251.375 C-242.0846875 1251.76945312 -242.981875 1252.16390625 -243.90625 1252.5703125 C-258.02656068 1256.03315059 -275.1467672 1254.69508211 -288.1875 1248.375 C-288.82800293 1248.06916992 -289.46850586 1247.76333984 -290.12841797 1247.44824219 C-324.63625563 1230.61474454 -350.97670417 1192.21568675 -364.05078125 1157.05322266 C-374.21975425 1127.40023666 -375.81359508 1092.01236929 -369.1875 1061.375 C-368.90543701 1060.04879639 -368.90543701 1060.04879639 -368.61767578 1058.69580078 C-361.32040204 1025.57651145 -345.67336746 995.20166643 -330.625 965.0625 C-329.95721527 963.72502716 -329.95721527 963.72502716 -329.27593994 962.36053467 C-327.99810243 959.80527252 -326.71671327 957.25183205 -325.43359375 954.69921875 C-325.04967972 953.93261429 -324.66576569 953.16600983 -324.2702179 952.37617493 C-322.74366126 949.34950647 -321.24210345 946.45841947 -319.3828125 943.61791992 C-317.96706077 940.96136127 -318.01493687 940.01765309 -318.81640625 937.1640625 C-319.02668457 936.38450195 -319.23696289 935.60494141 -319.45361328 934.80175781 C-319.6957959 934.00092773 -319.93797852 933.20009766 -320.1875 932.375 C-320.41550293 931.59737305 -320.64350586 930.81974609 -320.87841797 930.01855469 C-321.60761463 927.58923375 -322.36597087 925.17014798 -323.125 922.75 C-326.7548174 910.77270588 -329.41716946 899.4010926 -329.625 886.8125 C-329.64739746 885.966875 -329.66979492 885.12125 -329.69287109 884.25 C-329.67218758 878.80696952 -328.84059808 875.65838613 -325.1875 871.375 C-312.07009828 859.49661364 -285.50672856 852.96073957 -268.11328125 853.0078125 C-263.96559155 853.52835033 -260.85791884 855.19098899 -257.28125 857.28125 C-255.13802873 858.60650903 -255.13802873 858.60650903 -252.1875 858.375 C-250.16864203 856.74063737 -250.16864203 856.74063737 -248.125 854.53515625 C-247.33383789 853.72393311 -246.54267578 852.91270996 -245.72753906 852.0769043 C-244.47021973 850.77039917 -244.47021973 850.77039917 -243.1875 849.4375 C-237.31943443 843.44704586 -231.53526165 837.76168561 -224.92578125 832.6015625 C-216.85368731 826.03794831 -209.3561916 818.65655975 -202.125 811.1875 C-196.76551072 805.74734951 -190.77740356 801.21547336 -184.73193359 796.57763672 C-181.78767236 794.28496665 -178.98667484 791.84093974 -176.1875 789.375 C-176.65800781 788.69695313 -177.12851562 788.01890625 -177.61328125 787.3203125 C-188.99152413 770.31184177 -190.03666289 747.50685032 -186.50390625 727.62890625 C-184.35975422 719.22133916 -180.82148848 711.23652841 -177.1875 703.375 C-178.16589844 702.93929687 -179.14429688 702.50359375 -180.15234375 702.0546875 C-196.53665834 694.66071894 -208.1809729 686.73373151 -215.1875 669.375 C-216.55342347 664.61072477 -216.37135448 659.73031133 -216.375 654.8125 C-216.38724609 654.00103516 -216.39949219 653.18957031 -216.41210938 652.35351562 C-216.42348349 647.29203459 -216.08923458 642.37516707 -215.47071838 637.35070801 C-213.63075008 621.91688702 -213.88456541 606.40832933 -213.92675781 590.89086914 C-213.93801337 586.70319919 -213.93146697 582.51578749 -213.91987419 578.32812691 C-213.87999043 561.29205362 -214.12155134 544.31058526 -215.1171875 527.30078125 C-215.17943638 526.23609525 -215.17943638 526.23609525 -215.24294281 525.14990044 C-216.73684731 500.22243922 -219.4307961 475.13241406 -225.671875 450.8984375 C-226.19845472 448.32138825 -226.28218024 445.99764264 -226.1875 443.375 C-228.98713091 446.01281119 -231.07334106 448.53760906 -232.9921875 451.8671875 C-233.73940063 453.16209106 -233.73940063 453.16209106 -234.50170898 454.4831543 C-235.01677002 455.39621338 -235.53183105 456.30927246 -236.0625 457.25 C-236.59625244 458.18948486 -237.13000488 459.12896973 -237.67993164 460.09692383 C-241.74169111 467.3494893 -245.06649332 474.67187842 -248.1875 482.375 C-249.01637444 484.26131728 -249.86878669 486.13755838 -250.75 488 C-251.10191406 488.75539063 -251.45382812 489.51078125 -251.81640625 490.2890625 C-253.62445388 493.03976744 -255.41598943 494.59303303 -258.1875 496.375 C-263.20653524 497.35339421 -268.46756475 497.38683595 -273.30859375 495.5859375 C-279.90519862 490.86319498 -282.92166776 481.54343873 -286.1875 474.375 C-286.84338643 472.97378809 -287.49963316 471.57274478 -288.15625 470.171875 C-292.10446314 461.6267227 -295.60377062 452.92676206 -298.9375 444.125 C-299.30222412 443.16787109 -299.66694824 442.21074219 -300.04272461 441.22460938 C-301.13573084 438.28857798 -302.17102808 435.33836272 -303.1875 432.375 C-303.75452637 430.78921143 -303.75452637 430.78921143 -304.33300781 429.17138672 C-307.54998058 419.31994092 -307.66130672 410.2275447 -307.4375 400 C-307.41737452 398.37762658 -307.39913459 396.75522864 -307.3828125 395.1328125 C-307.33936321 391.21291987 -307.27068392 387.2942424 -307.1875 383.375 C-308.19707764 382.84898193 -309.20665527 382.32296387 -310.24682617 381.78100586 C-311.59566031 381.07167986 -312.94436777 380.36211293 -314.29296875 379.65234375 C-314.95550659 379.30796265 -315.61804443 378.96358154 -316.30065918 378.60876465 C-325.88098806 373.54962196 -334.01306812 366.77561439 -341.93359375 359.41796875 C-344.17345169 357.33208859 -344.17345169 357.33208859 -346.6796875 355.4609375 C-367.27283798 338.33205532 -378.57223973 303.5915609 -381.47412109 277.83056641 C-382.06491976 270.2156627 -382.62075495 262.31410964 -377.8671875 255.8828125 C-371.55205597 250.21388048 -367.30149344 249.94955572 -359.125 250.3125 C-336.44396889 250.70215391 -318.92552131 240.94096625 -299.58374023 229.88696289 C-292.36403368 225.80353055 -284.85080973 222.52802389 -277.1875 219.375 C-277.32381836 218.39950195 -277.32381836 218.39950195 -277.46289062 217.40429688 C-283.44857948 173.23298269 -283.59924358 125.43019377 -255.890625 88.296875 C-243.1290534 72.19089154 -243.1290534 72.19089154 -234.09375 71.12890625 C-228.58562091 70.82595915 -225.4815804 71.66647602 -221.1875 75.375 C-220.465625 76.32375 -219.74375 77.2725 -219 78.25 C-213.33104813 85.43262162 -202.64666516 88.63963384 -194.3125 91.6875 C-192.77770996 92.25380127 -192.77770996 92.25380127 -191.21191406 92.83154297 C-173.49161357 99.26440063 -155.46166904 104.69361906 -137.1875 109.3125 C-136.07342773 109.59496582 -134.95935547 109.87743164 -133.81152344 110.16845703 C-126.32134888 112.00441656 -118.8255117 113.31946054 -111.1875 114.375 C-111.04054688 113.45460938 -110.89359375 112.53421875 -110.7421875 111.5859375 C-104.92204887 78.7389482 -80.38319485 56.06725457 -54.85449219 36.64355469 C-53.28535179 35.44946367 -51.72441891 34.24460919 -50.1640625 33.0390625 C-44.8469099 28.97635877 -39.42350941 25.1984801 -33.8125 21.5625 C-27.78533409 17.65099865 -22.33833974 13.31287812 -17.01806641 8.48510742 C-12.0580929 4.03525539 -7.01598295 -0.24539209 0 0 Z " fill="#000000" transform="translate(514.1875,6.625)"/>
<path d="M0 0 C1.34171874 2.16455769 2.58339247 4.33503274 3.8125 6.5625 C11.72066018 20.22917186 22.32672457 30.8565907 34.49609375 40.76757812 C37.10061622 42.90193355 39.61620365 45.13553335 42.140625 47.36328125 C43.49716437 48.55737788 44.86307322 49.74085481 46.234375 50.91796875 C47.00265625 51.58441406 47.7709375 52.25085938 48.5625 52.9375 C49.24441406 53.52402344 49.92632813 54.11054687 50.62890625 54.71484375 C71.38872566 74.72224796 83.0097124 95.62254397 85.82348633 124.15527344 C86.79578147 133.930535 86.79578147 133.930535 92 142 C96.15277128 142.68945624 99.82366617 142.67639195 103.5 140.5625 C107.71435378 133.36297896 105.69575584 124.04824579 104.6875 116.1875 C104.55666016 115.08857422 104.42582031 113.98964844 104.29101562 112.85742188 C103.39777549 105.5345788 102.27136645 98.26624094 101 91 C127.58676178 70.64002988 156.00291596 67.21355303 188.71316528 65.66360474 C216.5723135 64.32769928 244.39604337 62.98507964 271.484375 55.81640625 C272.64453125 55.54699219 273.8046875 55.27757812 275 55 C277.33033771 57.33033771 276.2802674 63.56584105 276.28503418 66.809021 C276.15381296 76.8222971 274.39518808 86.44414331 272.5 96.25 C272.140302 98.1767941 271.78084884 100.10363393 271.42163086 102.03051758 C268.96966899 114.96689844 266.04519965 127.73338608 262.52734375 140.42089844 C260.1624693 148.95030844 258.86696492 156.83150418 258.8125 165.6875 C258.79123047 167.27111328 258.79123047 167.27111328 258.76953125 168.88671875 C259.01540399 172.20808439 259.82270561 174.89622388 261 178 C256.40534523 179.41980904 252.17727734 180.33175876 247.36328125 180.74609375 C246.08155029 180.85945068 244.79981934 180.97280762 243.47924805 181.08959961 C242.80163422 181.14614716 242.12402039 181.2026947 241.4258728 181.26095581 C239.26610475 181.44137571 237.10730437 181.63107762 234.94848633 181.82250977 C227.14402325 182.50825491 219.33596022 183.13255232 211.5234375 183.71875 C168.62631699 186.59162406 168.62631699 186.59162406 134.09375 210.3515625 C130.48225609 214.91983278 128.33440661 218.19855178 128.58984375 224.0625 C129.33906795 227.6016924 131.09242611 229.02037522 134 231 C138.40533215 231.80096948 140.26423039 231.49051307 144 229 C146.28855903 226.86802659 148.25060408 224.5261437 150.25 222.125 C165.26942962 204.74443734 189.29526973 204.749316 210.59375 203.18359375 C218.97388099 202.57922852 227.35704487 202.02234171 235.74136353 201.47956848 C242.4988333 201.04033744 249.25015676 200.54517364 256 200 C252.27684675 219.0601099 242.16729384 235.16261349 227.0625 247.375 C224.46260367 250.68395897 224.32194249 252.78469218 224.58984375 256.90625 C224.9154982 259.17876319 224.9154982 259.17876319 226.5 261.5625 C230.07672516 263.61911697 233.05557104 263.9305519 237 263 C240.26072535 261.3152919 243.11463734 259.25856036 246 257 C246.804375 256.41347656 247.60875 255.82695312 248.4375 255.22265625 C264.24384004 241.51258387 274.28065105 217.98269888 276.23828125 197.5078125 C276.40746621 192.0760848 275.7184025 188.40542939 272.97265625 183.69140625 C272 182 272 182 271 179 C271.61875 178.731875 272.2375 178.46375 272.875 178.1875 C275.2995233 177.04443152 275.2995233 177.04443152 277 174 C277.17282595 172.35678184 277.31608209 170.71031444 277.4375 169.0625 C277.9140625 166.3828125 277.9140625 166.3828125 279 164 C282.46356497 161.82257968 286.02772942 160.87356988 290 160 C290.84433594 159.81179687 291.68867187 159.62359375 292.55859375 159.4296875 C311.59122452 156.07994448 331.82170598 165.44752781 348.5625 173.5625 C359.97639942 179.08114498 371.29977934 183.11211286 383.89916992 184.92529297 C385.61604543 185.19289741 387.31197424 185.58788027 389 186 C392.13356337 190.70034506 390.98542181 194.57729867 390 200 C383.28680162 228.29347098 370.85512367 269.55383818 345.10644531 286.22607422 C343.42602206 287.18963516 341.71530282 288.09999543 340 289 C339.35675781 288.54109375 338.71351563 288.0821875 338.05078125 287.609375 C323.09701425 277.45531923 306.63126637 275.56644427 289 276 C288.690625 276.61875 288.38125 277.2375 288.0625 277.875 C287.375 279.25 286.6875 280.625 286 282 C285.54944838 287.4541414 285.54944838 287.4541414 287.3125 292.4375 C290.68995286 295.56477116 294.49652774 295.15320007 298.875 295.3125 C312.78746603 296.07716235 324.46170367 300.64360388 334.125 310.84375 C345.24858808 323.63587629 353.22408574 337.42938816 359.70095825 353.02044678 C361.07530955 356.31777711 362.48852483 359.5983452 363.90234375 362.87890625 C364.3113517 363.82817993 364.3113517 363.82817993 364.72862244 364.79663086 C371.57380877 380.61384884 380.54114325 395.87289712 393.57421875 407.421875 C395.22108944 409.24471269 395.60896275 410.60163822 396 413 C386.07714134 420.93371418 374.58530966 425.37957386 362 427 C360.82050781 427.15726562 359.64101563 427.31453125 358.42578125 427.4765625 C337.50229507 429.7944259 316.71780209 420.60304599 297.953125 412.22265625 C293.76751874 410.48972668 291.4966691 410.41978463 287 411 C283.58765183 413.41707996 282.22781946 414.81027614 281.4375 418.9375 C282.15560486 422.84718203 283.53436162 424.88274126 286 428 C289.06864752 429.88452033 289.06864752 429.88452033 292.65234375 431.21875 C293.62531151 431.61511406 293.62531151 431.61511406 294.61793518 432.01948547 C296.71697284 432.86670295 298.82601385 433.68435893 300.9375 434.5 C302.38299062 435.07336299 303.82830242 435.64717702 305.2734375 436.22143555 C316.31486361 440.55915525 327.47727058 444.15824578 339 447 C338.56058427 453.31371021 337.95617082 459.55457604 337 465.8125 C335.18664443 478.07152999 334.80610102 490.37356537 334.8125 502.75 C334.8117749 503.40565948 334.8110498 504.06131897 334.81030273 504.73684692 C334.81174086 516.67743664 335.52101888 528.50553185 336.5625 540.40234375 C336.95454915 544.95914945 337.08802534 549.42818412 337 554 C322.65792966 550.47738623 311.32784579 540.06061081 301 530 C300.05447266 529.1646875 300.05447266 529.1646875 299.08984375 528.3125 C284.86203523 515.39647525 276.18342499 495.55062648 268.55859375 478.31640625 C268.26734619 477.65902969 267.97609863 477.00165314 267.67602539 476.32435608 C266.23473278 473.0611214 264.81169467 469.79141464 263.41455078 466.5090332 C262.89747559 465.31753662 262.38040039 464.12604004 261.84765625 462.8984375 C261.39398682 461.83286621 260.94031738 460.76729492 260.47290039 459.66943359 C258.93303739 456.87863929 257.71977467 455.6099874 255 454 C251.91991822 453.3492785 249.08891039 453.3992211 246 454 C243.27324837 455.97071892 243.27324837 455.97071892 242 459 C241.5821074 463.79857445 242.57852943 467.14591878 244.421875 471.55859375 C244.67811142 472.17647263 244.93434784 472.7943515 245.198349 473.43095398 C246.03665707 475.43854515 246.89215874 477.43818531 247.75 479.4375 C248.03912262 480.12108582 248.32824524 480.80467163 248.62612915 481.50897217 C253.75376005 493.62111014 259.50689089 505.29968517 265.87768555 516.81298828 C267.09617648 519.18741547 268.1767725 521.45809553 269 524 C267.875 527.0625 267.875 527.0625 266.97265625 528.86328125 C265.80286057 531.43307336 265.09497943 534.03763858 264.3125 536.75 C261.03832083 546.69655944 254.15712545 554.07996013 247.15625 561.65625 C245.19227932 563.79100074 243.31086639 565.97352154 241.4375 568.1875 C238.52096959 571.54184675 235.35496276 574.41338735 231.96875 577.28515625 C230.05544739 578.95170356 228.27541283 580.68827191 226.5 582.5 C223.52361803 585.52341283 220.40989869 588.32277838 217.1953125 591.08984375 C213.7443077 594.09258636 210.37951229 597.19033914 207.00390625 600.27734375 C205 602 205 602 204 602 C203.88519287 601.19296631 203.77038574 600.38593262 203.65209961 599.55444336 C199.43887963 570.3459408 193.04859992 542.13381117 185 513.75 C184.70699005 512.71118683 184.4139801 511.67237366 184.11209106 510.6020813 C179.33396461 493.73216512 174.42232508 476.79496485 166.1640625 461.25 C165 459 165 459 164 456 C165.03898438 455.82984375 166.07796875 455.6596875 167.1484375 455.484375 C182.94312205 452.80130937 182.94312205 452.80130937 196 444 C199.12625574 439.5801212 200.1452041 435.73705711 200.25 430.375 C200.28867188 429.21097656 200.28867188 429.21097656 200.328125 428.0234375 C199.40169563 419.48705259 195.71149597 411.85403649 192.0625 404.1875 C179.47007362 376.81364938 182.640896 350.86840067 187.55029297 321.734375 C188.0683338 318.58450676 188.16881643 315.56615367 188.1875 312.375 C188.20876953 310.71597656 188.20876953 310.71597656 188.23046875 309.0234375 C188.00333855 306.04379731 187.66638925 304.44699019 186 302 C182.29572889 299.53048593 179.2955505 299.34915902 175 300 C172.40087749 301.1786663 172.40087749 301.1786663 171 304 C161.26936021 343.22766847 158.69803197 382.88727381 177.51025391 419.39428711 C179.54145014 423.45114635 180.40105668 426.461727 180 431 C170.90582998 436.2650458 161.01030752 436.36145116 150.75 436.3125 C149.55721436 436.30831055 148.36442871 436.30412109 147.13549805 436.29980469 C129.27739338 436.07065148 117.91065645 432.38153118 105 420 C104.03707031 419.13181641 104.03707031 419.13181641 103.0546875 418.24609375 C96.3013344 411.96214412 92.07149742 403.97309268 87.65917969 395.97412109 C80.75004596 383.46259376 72.97251643 373.06312331 61 365 C61.66338668 360.79065357 63.0803977 357.22401672 64.75 353.3125 C67.16132119 347.47007889 69.15613341 341.58209492 70.875 335.5 C71.08995117 334.75919189 71.30490234 334.01838379 71.52636719 333.25512695 C73.15787503 327.28663978 74.23098643 322.18400818 71.0625 316.5625 C67.45056961 313.54027253 65.72526653 313.3512104 61.18359375 313.3984375 C58.1079352 314.24575667 56.94510669 315.4808597 55 318 C53.86580621 321.16454978 53.86580621 321.16454978 53.125 324.75 C44.78706354 358.94476659 22.92008377 398.88330421 -4 422 C-4.99 422.33 -5.98 422.66 -7 423 C-11.61866935 417.96068681 -14.55232372 412.48225964 -17.6875 406.4375 C-28.99539468 385.21664777 -44.3751595 368.86962882 -66 358 C-65.855625 357.35675781 -65.71125 356.71351563 -65.5625 356.05078125 C-62.84599774 343.42078066 -62.84599774 343.42078066 -65.41015625 331.203125 C-67.20500431 328.7159154 -68.04942331 327.81960464 -71 327 C-76.87508547 327.4177976 -76.87508547 327.4177976 -82 330 C-82.67505332 333.15551923 -82.67505332 333.15551923 -82.8125 336.9375 C-84.23918581 352.06036957 -91.04164441 365.43662064 -97.5 379 C-98.03343018 380.12124268 -98.56686035 381.24248535 -99.11645508 382.39770508 C-103.88771948 392.19395494 -109.23986216 401.46677985 -116.4375 409.6875 C-116.90196533 410.22785889 -117.36643066 410.76821777 -117.8449707 411.32495117 C-121.6924697 415.75562497 -125.74165269 419.96128092 -130 424 C-133.64905418 422.54354454 -135.08853528 420.77542149 -137.1875 417.5 C-140.99653706 411.85547814 -145.32393436 406.93805234 -150 402 C-150.68707031 401.26007813 -151.37414062 400.52015625 -152.08203125 399.7578125 C-158.47310336 393.09402303 -165.65768576 387.5590953 -173 382 C-173.59441895 381.54963379 -174.18883789 381.09926758 -174.80126953 380.63525391 C-178.18897313 378.07409376 -181.58902202 375.53012103 -185 373 C-183.25385485 367.90547761 -180.23879823 363.75165186 -177.1015625 359.43554688 C-173.92590679 354.77001373 -173.43554757 351.63264111 -174 346 C-176.11724879 342.69709188 -177.61275391 342.11473958 -181.375 341 C-185.99892304 341 -187.40129683 342.13369622 -191 345 C-192.99987088 347.41283398 -194.68282262 349.99040242 -196.375 352.625 C-197.3425376 354.07459812 -198.31259054 355.52252053 -199.28515625 356.96875 C-199.98535889 358.01482422 -199.98535889 358.01482422 -200.69970703 359.08203125 C-208.21302608 370.16438846 -217.96362868 380.07393116 -228.25 388.625 C-243.64228767 401.8604066 -252.89716091 421.24384473 -262 439 C-265.17322901 437.4133855 -265.80108936 434.17389276 -267.08203125 431.02734375 C-267.37808762 430.31203995 -267.67414398 429.59673615 -267.97917175 428.85975647 C-268.60868134 427.33357956 -269.23474274 425.80597661 -269.85766602 424.27709961 C-270.78905696 421.99494175 -271.73436405 419.71896081 -272.68164062 417.44335938 C-284.46578639 388.8808884 -286.06723654 368.81881168 -275.33984375 339.70703125 C-275.11119629 339.08389038 -274.88254883 338.46074951 -274.64697266 337.81872559 C-273.51234082 334.73259881 -272.35647584 331.65779555 -271.16455078 328.59326172 C-268.76300848 322.1949255 -267.26845273 317.7037885 -269 311 C-269.91666667 308.91666667 -269.91666667 308.91666667 -272 308 C-276.02238853 306.82427761 -276.02238853 306.82427761 -280 307 C-286.80601866 310.98291448 -288.4051515 317.12557689 -290.875 324.3125 C-291.2771875 325.43462891 -291.679375 326.55675781 -292.09375 327.71289062 C-293.07920824 330.46982737 -294.04719442 333.23164472 -295 336 C-304.33877246 331.76014188 -312.18106526 326.54421144 -320 320 C-320.52658203 319.56526367 -321.05316406 319.13052734 -321.59570312 318.68261719 C-341.72694385 301.88163747 -352.92007128 275.62481546 -357 250 C-357.0418513 248.00043793 -357.05323557 245.99929137 -357 244 C-356.0867395 243.97812622 -356.0867395 243.97812622 -355.1550293 243.95581055 C-333.95377872 243.38822433 -318.52993796 238.66094334 -299.75 228.6875 C-297.54458927 227.53194413 -295.3388605 226.37699506 -293.1328125 225.22265625 C-290.28849963 223.72928343 -287.44470491 222.23504277 -284.60449219 220.73388672 C-272.14272388 214.16884511 -259.33387251 209.14022525 -245.8203125 205.1484375 C-244.78011963 204.84107666 -243.73992676 204.53371582 -242.66821289 204.21704102 C-240.63751496 203.62559885 -238.60290588 203.04738292 -236.56420898 202.48413086 C-229.92414356 200.65093768 -229.92414356 200.65093768 -225 196 C-223.55569145 193.11138291 -223.62311494 191.20352299 -224 188 C-225.7460079 184.91911456 -225.7460079 184.91911456 -229 183 C-235.44860722 181.77058927 -241.5026162 183.43246777 -247.65234375 185.34375 C-250 186 -250 186 -253 186 C-257.89046743 162.04253157 -257.98390235 135.95817713 -253 112 C-252.86078125 111.30825684 -252.7215625 110.61651367 -252.578125 109.90380859 C-249.15127851 93.51919882 -241.05596066 80.98364541 -231 68 C-227.3214488 69.74030113 -224.12514602 71.93268026 -220.8046875 74.26953125 C-212.25058087 79.54734356 -203.0803812 83.00085775 -193.625 86.3125 C-192.61722 86.66808487 -192.61722 86.66808487 -191.58908081 87.03085327 C-177.56254796 91.96617982 -163.3701177 96.17740711 -149 100 C-147.4523999 100.41523926 -147.4523999 100.41523926 -145.87353516 100.83886719 C-133.37044096 104.16687011 -120.82699465 106.87002511 -108.1105957 109.24682617 C-97.72584384 111.20190942 -87.55983142 113.14194979 -78 117.8125 C-73.60789898 119.936656 -70.80332013 120.60110671 -66 119 C-63.92435994 117.38832654 -63.10602709 116.51007628 -62.56640625 113.9140625 C-62.56447266 112.78097656 -62.56447266 112.78097656 -62.5625 111.625 C-62.54316406 110.87476563 -62.52382813 110.12453125 -62.50390625 109.3515625 C-63.2043478 106.03135923 -64.65049509 104.42427978 -67 102 C-69.72259456 100.2412967 -69.72259456 100.2412967 -72.75 98.875 C-74.3278125 98.12476563 -74.3278125 98.12476563 -75.9375 97.359375 C-79.58388836 95.74082507 -83.23061518 94.30478705 -87 93 C-86.55829391 75.21129111 -76.13387492 60.3031848 -64 48 C-62.19996908 46.30880816 -60.35848245 44.69279633 -58.47265625 43.09765625 C-56.51920159 41.44046011 -54.5969608 39.76121624 -52.68359375 38.05859375 C-41.18306325 27.86856034 -29.07680725 18.92551678 -16.23168945 10.50952148 C-11.84365173 7.6194953 -7.68935885 4.52986998 -3.63671875 1.1796875 C-2 0 -2 0 0 0 Z " fill="#2C2C2C" transform="translate(511,34)"/>
<path d="M0 0 C4.7211067 0.77824846 7.87410646 2.6414652 11.6875 5.4375 C12.30326904 5.88706055 12.91903809 6.33662109 13.5534668 6.79980469 C28.49224089 17.94216683 36.69592145 32.18580312 45.28295898 48.33544922 C45.72325439 49.15674316 46.1635498 49.97803711 46.6171875 50.82421875 C47.00503418 51.55729248 47.39288086 52.29036621 47.79248047 53.0456543 C48.93168431 55.05967015 48.93168431 55.05967015 50.64892578 56.63598633 C52 58 52 58 52 60 C53.33273111 60.66786976 54.66620785 61.33425176 56 62 C57.04607422 62.52980469 57.04607422 62.52980469 58.11328125 63.0703125 C63.6383203 65.71997599 67.95672175 67.21374206 74.08203125 65.375 C85.30572224 60.97201089 92.86054113 52.36737511 100 43 C100.70640625 42.10796875 101.4128125 41.2159375 102.140625 40.296875 C108.61869216 31.95461585 114.12410185 23.04704185 119.68994141 14.08300781 C121.40774587 11.35167951 123.19148439 8.67196367 125 6 C135.53261097 10.88096606 140.77217773 20.10192373 146.15625 29.9140625 C150.53714556 37.89230187 154.98962736 45.10244138 161 52 C161.52722656 52.6703125 162.05445313 53.340625 162.59765625 54.03125 C173.73925373 67.82821593 188.62707149 75.40010699 206 78 C207.81268755 77.94319916 209.6252303 77.88135523 211.4375 77.8125 C213.8203125 77.984375 213.8203125 77.984375 216 79 C218.65470412 82.85192363 220.34557505 86.77600306 222.11523438 91.10913086 C223.0234582 93.05013348 224.10470128 94.66014164 225.33203125 96.4140625 C229.4997617 102.90232769 231.50799259 110.52838809 233.875 117.8125 C234.13667969 118.60668335 234.39835937 119.4008667 234.66796875 120.21911621 C239.12913817 133.76923828 242.99269017 147.3975771 246.33886719 161.26904297 C246.91888829 163.66494992 247.51815298 166.05420159 248.1328125 168.44140625 C248.94325108 171.60339299 249.73375016 174.76868987 250.50097656 177.94140625 C250.85850325 179.41629128 251.22032734 180.89013716 251.58496094 182.36328125 C254.60338752 194.62534495 256.89852012 206.83972719 258.48046875 219.37426758 C260.52576358 235.1282797 260.52576358 235.1282797 269 248 C273.60210698 249.53403566 277.4239007 249.68663844 281.9140625 247.73046875 C291.4879168 242.36183906 299.45914238 233.90361757 307.4453125 226.44580078 C309.79968666 224.25632155 312.17799296 222.09407622 314.5625 219.9375 C315.70912109 218.89916016 315.70912109 218.89916016 316.87890625 217.83984375 C318.85812943 216.123059 320.89673088 214.5599223 323 213 C323.07881409 213.8426944 323.15762817 214.68538879 323.23883057 215.55361938 C324.23922606 226.24439298 325.243355 236.93481308 326.25 247.625 C326.32971668 248.47182972 326.40943336 249.31865944 326.4915657 250.19115067 C328.52632801 271.79846517 330.57471582 293.40207544 332.93261719 314.97705078 C333.04492424 316.00858528 333.04492424 316.00858528 333.15950012 317.06095886 C333.35213401 318.82269697 333.5478473 320.58409767 333.74389648 322.34545898 C334 325 334 325 334 328 C333.3100293 328.24943359 332.62005859 328.49886719 331.90917969 328.75585938 C304.11598881 338.87734177 277.23865473 350.88279267 250.66235352 363.84423828 C190.23366576 393.26054646 110.13333428 421.83184027 42.578125 398.52734375 C33.5272081 395.21877058 24.89808583 391.14232282 16.35546875 386.69921875 C13.59606046 385.30184668 10.87572974 384.12227338 8 383 C7.14156853 375.54398671 6.28752363 368.08748034 5.43652344 360.63061523 C5.14651804 358.0940412 4.85550943 355.55758165 4.56347656 353.02124023 C4.14384249 349.37513402 3.72782033 345.72863103 3.3125 342.08203125 C3.18125732 340.94852737 3.05001465 339.8150235 2.91479492 338.64717102 C2.79467041 337.58644882 2.6745459 336.52572662 2.55078125 335.43286133 C2.44419189 334.50242508 2.33760254 333.57198883 2.2277832 332.61335754 C2.00525113 330.06024623 1.9591895 327.56127495 2 325 C2.60247559 325.04600342 3.20495117 325.09200684 3.82568359 325.1394043 C6.67433739 325.34403809 9.52418685 325.5156553 12.375 325.6875 C13.32117188 325.76033203 14.26734375 325.83316406 15.2421875 325.90820312 C31.21544947 326.80144475 46.88804398 322.27642204 62.1875 318.1875 C63.07218964 317.95345459 63.95687927 317.71940918 64.86837769 317.47827148 C131.91868244 300.24430104 131.91868244 300.24430104 195.05859375 272.56640625 C198 271 198 271 201 270 C202.99543195 266.32420431 203.60341732 263.13771877 203 259 C201.1264113 255.9594012 201.1264113 255.9594012 198 254 C190.48823872 252.82820022 185.18619625 255.94701412 178.5843811 259.29562378 C101.55928301 298.04919768 19.25730819 315.94707691 -63.1635437 288.83843994 C-74.13929666 285.19337921 -85.0655752 281.40348919 -95.8125 277.125 C-96.66457031 276.79250244 -97.51664062 276.46000488 -98.39453125 276.11743164 C-106.47848035 272.76601648 -112.08244757 268.27540501 -116.10205078 260.38769531 C-117.6247156 256.33884759 -117.5648659 252.64709606 -117.4375 248.375 C-117.41379837 247.51454071 -117.39009674 246.65408142 -117.36567688 245.76754761 C-117.18246294 240.25073463 -116.82796079 234.79488887 -116.25959778 229.30514526 C-114.87546031 215.74770404 -114.72631076 202.2684431 -114.79418945 188.65039062 C-114.81238035 184.89966922 -114.8146984 181.14919844 -114.81445312 177.3984375 C-114.83965317 160.24819367 -115.30192346 143.13498177 -116 126 C-116.03641602 125.10335129 -116.07283203 124.20670258 -116.11035156 123.28288269 C-116.24207225 120.07241245 -116.3784005 116.86224163 -116.5234375 113.65234375 C-116 111 -116 111 -113.80078125 108.7890625 C-101.55251868 100.96520719 -88.05517766 96.86765804 -73.59765625 99.65625 C-66.82152247 101.49062927 -62.35363706 104.03783112 -57.0625 108.5703125 C-53.53479771 111.01565159 -51.17045563 110.70685689 -47 110 C-44.44148975 109.18547684 -44.44148975 109.18547684 -43 107 C-41.77190178 102.31787555 -41.3998845 100.25024063 -43.5 95.875 C-52.08522646 86.00198957 -63.32839414 81.08188312 -76.3359375 79.76318359 C-88.59035713 79.06460038 -98.54706918 80.67928752 -110 85 C-112.99321199 86.02075136 -115.99523144 87.01383933 -119 88 C-119.07927734 87.34032227 -119.15855469 86.68064453 -119.24023438 86.00097656 C-121.3371373 69.03459904 -124.44304489 52.54070816 -128.35742188 35.91113281 C-128.53138489 35.16336578 -128.7053479 34.41559875 -128.88458252 33.64517212 C-129.21098812 32.24638376 -129.54320402 30.84893241 -129.88250732 29.45321655 C-130.7902929 25.5673062 -131.37199832 21.98767608 -131 18 C-128.625 15.8125 -128.625 15.8125 -126 14 C-125.34 13.01 -124.68 12.02 -124 11 C-119.33625244 13.17948492 -115.53856979 16.28077247 -111.5 19.4375 C-110.69771973 20.06350098 -109.89543945 20.68950195 -109.06884766 21.33447266 C-102.39662358 26.59174121 -96.12268675 32.11352801 -90 38 C-89.2884375 38.64839844 -88.576875 39.29679687 -87.84375 39.96484375 C-83.56898848 43.97667351 -80.34601738 48.30667279 -77.0625 53.125 C-72.60169352 59.57575101 -68.35670496 64.44371814 -60.56640625 66.70703125 C-53.98405688 67.80580096 -48.57101991 66.63532655 -43 63 C-22.73643852 46.24220331 -10.76404646 23.46392617 0 0 Z " fill="#F3DDB3" transform="translate(436,411)"/>
<path d="M0 0 C2.08244176 1.26042527 4.0266446 2.5777966 6 4 C6.86625 4.60972656 7.7325 5.21945312 8.625 5.84765625 C15.45101035 11.19017287 15.45101035 11.19017287 16.81640625 15.69140625 C18.60626702 58.12842775 -27.36284961 109.4332434 -49.79785156 142.51367188 C-51.59275035 145.1603733 -53.38496365 147.80886015 -55.17480469 150.45898438 C-58.98893837 156.10329941 -62.80688101 161.74262144 -66.70864868 167.32687378 C-67.8665018 168.98715154 -69.0153993 170.65366348 -70.1640625 172.3203125 C-71.55412356 174.33716474 -72.95822387 176.34444297 -74.37890625 178.33984375 C-78.15762728 183.86503248 -79.92535727 187.27423251 -79 194 C-78.18547684 196.55851025 -78.18547684 196.55851025 -76 198 C-70.59698314 199.38056566 -70.59698314 199.38056566 -65.47265625 197.80078125 C-62.77689893 195.83752039 -61.21901214 193.97949677 -59.3125 191.25 C-58.61640625 190.25742187 -57.9203125 189.26484375 -57.203125 188.2421875 C-54.55527916 184.34553494 -51.92652395 180.4370785 -49.32739258 176.5078125 C-45.27453585 170.3832963 -41.1387867 164.31667301 -37 158.25 C-29.97822283 147.95102567 -23.03935359 137.59947657 -16.15234375 127.20996094 C-14.76477615 125.12033506 -13.37250158 123.03382477 -11.97485352 120.95092773 C-10.65836502 118.98376289 -9.35669476 117.00659999 -8.07006836 115.01977539 C-7.46557861 114.10832764 -6.86108887 113.19687988 -6.23828125 112.2578125 C-5.71274658 111.45102051 -5.18721191 110.64422852 -4.64575195 109.81298828 C-3 108 -3 108 -0.94213867 107.34716797 C2.48695308 107.29134646 5.70416101 108.1449819 9 109 C8.88406494 109.6798999 8.76812988 110.3597998 8.64868164 111.06030273 C8.11731073 114.18559219 7.58988115 117.31153491 7.0625 120.4375 C6.88009766 121.50677734 6.69769531 122.57605469 6.50976562 123.67773438 C6.33251953 124.73154297 6.15527344 125.78535156 5.97265625 126.87109375 C5.81031494 127.82943115 5.64797363 128.78776855 5.48071289 129.77514648 C4.42723036 136.84241452 3.80851445 143.900057 3.46875 151.03515625 C3.42721802 151.88731216 3.38568604 152.73946808 3.34289551 153.6174469 C2.79338772 165.61793773 2.64363962 177.63051204 2.44775391 189.64086914 C2.39605913 192.73852468 2.33892549 195.83604468 2.28125 198.93359375 C2.26767456 199.87311386 2.25409912 200.81263397 2.2401123 201.78062439 C2.16022671 205.96684623 2.05227286 209.9192475 1 214 C0.31679688 213.9278125 -0.36640625 213.855625 -1.0703125 213.78125 C-33.62209812 210.78415465 -60.58861928 216.69656286 -90.5 229.625 C-91.53205566 230.06779297 -92.56411133 230.51058594 -93.62744141 230.96679688 C-102.43705159 234.89378031 -110.17803024 238.91252863 -114.05419922 248.13256836 C-117.44274789 258.40580123 -114.22560761 271.39869978 -112.875 281.9375 C-112.70694351 283.26048599 -112.70694351 283.26048599 -112.53549194 284.61019897 C-107.19943964 326.20552154 -95.15921998 365.65098567 -81 405 C-80.72867249 405.75446411 -80.45734497 406.50892822 -80.17779541 407.28625488 C-74.46100573 423.13111423 -68.39653183 438.76838781 -61.1875 454 C-60.68476562 455.07338623 -60.18203125 456.14677246 -59.6640625 457.25268555 C-54.2294579 468.36755164 -46.76941065 479.42741227 -35 484.3125 C-28.11194361 486.57103277 -21.19825117 486.86631819 -14 487 C-12.97326172 487.02271973 -12.97326172 487.02271973 -11.92578125 487.04589844 C-1.92080617 487.23545665 8.04699474 486.89647163 18.03735352 486.35595703 C22.80835085 486.10525105 27.55618171 485.9747973 32.33447266 485.98632812 C33.39993317 485.988302 34.46539368 485.99027588 35.56314087 485.99230957 C36.76938614 485.99611633 36.76938614 485.99611633 38 486 C38.09942902 486.60181091 38.19885803 487.20362183 38.30130005 487.82366943 C44.78739493 527.57824367 44.78739493 527.57824367 53 567 C53.41117965 568.82789509 53.82135542 570.65601632 54.23046875 572.484375 C57.71431299 587.82314295 62.23035911 602.84487602 66.78125 617.89453125 C67.0604126 618.81935303 67.3395752 619.7441748 67.62719727 620.69702148 C68.15568149 622.44361488 68.68727419 624.18927162 69.22241211 625.93383789 C71 631.78163218 71 631.78163218 71 634 C-46.81 634 -164.62 634 -286 634 C-286 626.1218846 -286 626.1218846 -285.39257812 622.55395508 C-285.25789124 621.74827087 -285.12320435 620.94258667 -284.98443604 620.11248779 C-284.83488464 619.25681213 -284.68533325 618.40113647 -284.53125 617.51953125 C-284.37573669 616.60689514 -284.22022339 615.69425903 -284.05999756 614.75396729 C-283.5481014 611.77200699 -283.02545035 608.79210034 -282.5 605.8125 C-282.31949097 604.78325409 -282.13898193 603.75400818 -281.95300293 602.693573 C-267.39225102 520.00747497 -243.89597682 438.43768813 -209 362 C-208.47470703 360.84790039 -207.94941406 359.69580078 -207.40820312 358.50878906 C-196.12275777 333.81870833 -184.16251132 309.4385434 -171.34130859 285.50732422 C-169.81027694 282.64534841 -168.29038302 279.77755394 -166.76953125 276.91015625 C-146.62036892 239.0514925 -123.86019387 204.51572596 -96.08032227 171.82958984 C-93.2202785 168.46055101 -90.4069659 165.05914839 -87.625 161.625 C-80.42375922 152.78476715 -72.92076839 144.18516314 -65.25 135.75 C-62.24239392 132.43560714 -59.37570304 129.04340917 -56.5625 125.5625 C-53.48663412 121.75912497 -50.31246834 118.09917348 -47 114.5 C-42.99448993 110.13762421 -39.18394994 105.66988946 -35.46875 101.05859375 C-33.65109128 98.80665265 -31.81911904 96.5723674 -29.96875 94.34765625 C-11.06495393 71.53498789 6.0325051 49.00372267 3.5625 18.01171875 C2.94648153 11.85503416 1.75258837 5.94116435 0 0 Z " fill="#00CDCD" transform="translate(863,646)"/>
<path d="M0 0 C-0.76183594 0.81082031 -1.52367187 1.62164063 -2.30859375 2.45703125 C-8.03073287 8.58137735 -13.53881305 14.78119315 -18.7890625 21.3203125 C-21.1093495 24.13253315 -23.53071134 26.81797263 -26 29.5 C-30.05983645 33.91640144 -33.89323821 38.46163522 -37.66015625 43.12890625 C-39.73745296 45.67784295 -41.8500476 48.18764666 -43.98608398 50.68701172 C-49.68509544 57.35672841 -55.16852999 64.1695406 -60.53466797 71.109375 C-62.06912275 73.0891847 -63.61456989 75.06012191 -65.16015625 77.03125 C-76.54925519 91.6402679 -86.74364949 106.95906174 -96 123 C-96.4645459 123.804375 -96.9290918 124.60875 -97.40771484 125.4375 C-109.26571932 146.04811496 -120.62834903 166.95506231 -131.15332031 188.27905273 C-133.57634568 193.18328856 -136.06496563 198.03844505 -138.65600586 202.85595703 C-145.36674675 215.34737018 -151.3042059 228.19047141 -157.1439209 241.10681152 C-157.71246406 242.36412449 -158.28187494 243.62104547 -158.85217285 244.87756348 C-184.82583753 302.11341231 -203.11142819 361.11926683 -218.375 422 C-218.66405212 423.1511731 -218.95310425 424.30234619 -219.25091553 425.48840332 C-223.45150615 442.26494927 -227.32630657 459.10045675 -231 476 C-233.02204277 472.43579095 -233.97560246 468.68989781 -234.9609375 464.74633789 C-235.14729704 464.01625424 -235.33365658 463.2861706 -235.52566338 462.5339632 C-236.14639417 460.09792843 -236.76063487 457.66030352 -237.375 455.22265625 C-237.81531949 453.49009048 -238.25609498 451.75764054 -238.69729614 450.02529907 C-239.64144171 446.31527222 -240.58297161 442.60459529 -241.52252197 438.8934021 C-243.76784026 430.0268377 -246.03005455 421.16457653 -248.29040909 412.30183601 C-249.05769433 409.29289609 -249.82452327 406.28384015 -250.59127808 403.27476501 C-281.13002269 282.7173066 -281.13002269 282.7173066 -329 135 C-329.40750488 134.09588379 -329.81500977 133.19176758 -330.23486328 132.26025391 C-341.09161122 108.33300882 -354.41163513 86.32174554 -369.21337891 64.68115234 C-370.89132994 62.16307933 -372.46699788 59.60829446 -374 57 C-361.77319919 56.17510339 -353.41617251 58.86180557 -342.55859375 64.16015625 C-332.21735633 69.20474013 -322.25795394 73.48733334 -311 76 C-310.28908203 76.16226074 -309.57816406 76.32452148 -308.84570312 76.49169922 C-234.25404217 92.49686296 -161.2866627 66.50502255 -95.24124146 35.03198242 C-10.58839096 -5.29419548 -10.58839096 -5.29419548 0 0 Z " fill="#C1C1C2" transform="translate(795,755)"/>
<path d="M0 0 C43.94530832 43.8141283 45.21419591 163.61612633 51 222 C51.12068848 223.1952832 51.24137695 224.39056641 51.36572266 225.62207031 C52.89556257 241.24812024 53.45573118 256.94362094 54.125 272.625 C54.16974457 273.65241302 54.21448914 274.67982605 54.2605896 275.7383728 C56.79561608 334.9302059 56.79561608 334.9302059 48 345.375 C39.40213638 350.03217613 29.68320851 351.90617331 20.125 353.5 C18.90482178 353.7072168 17.68464355 353.91443359 16.42749023 354.12792969 C-0.28090119 356.84352414 -17.14586483 358.48370574 -34 360 C-35.15008545 360.10602539 -36.3001709 360.21205078 -37.48510742 360.32128906 C-47.18784489 361.12142614 -56.88584072 361.21985537 -66.6159668 361.24023438 C-69.45715254 361.25006802 -72.29765085 361.28126122 -75.13867188 361.3125 C-76.96614162 361.31902093 -78.79361643 361.32427496 -80.62109375 361.328125 C-81.45974472 361.3404718 -82.29839569 361.3528186 -83.16246033 361.36553955 C-89.26589476 361.34250378 -93.9668664 360.32233865 -98.93359375 356.51953125 C-117.87034354 335.02509058 -125.67589603 300.62769752 -135 274 C-135.22469971 273.35961792 -135.44939941 272.71923584 -135.6809082 272.05944824 C-148.20798363 236.30538335 -157.74245552 199.83818884 -161 162 C-161.06477539 161.25443848 -161.12955078 160.50887695 -161.19628906 159.74072266 C-161.78007241 152.09462938 -161.78007241 152.09462938 -161 149 C-155.70337766 144.17738979 -149.32649269 141.8189678 -142.8125 139.0625 C-142.18839233 138.79609711 -141.56428467 138.52969421 -140.92126465 138.25521851 C-110.45261376 125.29768533 -81.42478941 125.065425 -49.12207031 130.30908203 C-36.94105483 132.73856741 -36.94105483 132.73856741 -25.5 129.375 C-23.45125637 126.13115593 -23 123.8339281 -23 120 C-24.79790489 116.7637712 -26.20764683 115.36718806 -29.5625 113.8125 C-32.60766186 113.09273447 -35.63615839 112.50215337 -38.71484375 111.94921875 C-39.70476318 111.77092529 -40.69468262 111.59263184 -41.71459961 111.40893555 C-42.8458728 111.20651245 -42.8458728 111.20651245 -44 111 C-44.58468623 19.26722788 -44.58468623 19.26722788 -37.54785156 10.11035156 C-29.02041385 1.92723941 -11.45477082 -2.72192574 0 0 Z " fill="#EDD7AE" transform="translate(929,752)"/>
<path d="M0 0 C1.84375 2.0625 1.84375 2.0625 3.5 5 C3.82202393 5.55905029 4.14404785 6.11810059 4.47583008 6.6940918 C5.22881157 8.01108259 5.97119496 9.3341632 6.70556641 10.66162109 C8.17335753 13.31316832 9.67010088 15.94736096 11.16796875 18.58203125 C17.13990029 29.13050442 22.9582766 39.75562011 28.6875 50.4375 C34.10046825 60.5238019 39.89887334 70.31644826 46 80 C45.22140625 80.76957031 44.4428125 81.53914062 43.640625 82.33203125 C37.78864901 88.18881185 37.78864901 88.18881185 35.6875 95.875 C35.75098761 98.78484862 35.94700707 99.90783838 37.4375 102.5 C40.62404553 104.36529494 42.79212942 104.87015053 46.47265625 104.703125 C50.76211789 103.50976627 53.50875164 100.49993183 56.78125 97.5859375 C60.37448962 94.54179268 64.34279166 92.3688366 68.5 90.1875 C69.17546875 89.8272876 69.8509375 89.4670752 70.546875 89.09594727 C72.67397876 88.00169649 74.82074649 86.98624189 77 86 C77.75224854 85.65678711 78.50449707 85.31357422 79.27954102 84.95996094 C87.63634183 81.53679124 96.36291803 80.46512497 105.24829102 79.24462891 C107.90246055 78.87981613 110.55375807 78.49820196 113.20507812 78.11328125 C122.04210035 76.84821355 130.88882094 75.73914039 139.76953125 74.828125 C140.5686644 74.74480927 141.36779755 74.66149353 142.19114685 74.57565308 C149.47142737 73.8632024 156.69018426 73.80064139 164 74 C168.45305822 82.06870768 171.40473752 90.50091393 174.1875 99.25 C174.42166626 99.98042511 174.65583252 100.71085022 174.89709473 101.46340942 C186.51312573 137.82291648 194.77168227 174.75458385 200.3125 212.5 C200.49770203 213.7613829 200.49770203 213.7613829 200.68664551 215.04824829 C203.08841976 231.56663539 205.36363397 248.09169282 205.3125 264.8125 C205.32861328 265.91658203 205.34472656 267.02066406 205.36132812 268.15820312 C205.36536444 274.84638219 205.1670765 279.54638088 200.46459961 284.67431641 C194.86576631 290.03176376 188.28637408 293.3151786 181.375 296.6875 C180.77207123 296.98481018 180.16914246 297.28212036 179.54794312 297.58843994 C121.38495278 326.2070732 121.38495278 326.2070732 97.3125 326.3125 C96.42175781 326.32925781 95.53101563 326.34601563 94.61328125 326.36328125 C90.39963569 325.77752783 87.77327991 323.88590264 84.99682617 320.70507812 C80.3718448 314.16670249 76.18426337 307.51009652 72.3125 300.5 C71.7151001 299.42105469 71.1177002 298.34210938 70.50219727 297.23046875 C55.93787852 270.62224675 44.88032336 242.92292131 34.37890625 214.54296875 C33.97623535 213.45490936 33.57356445 212.36684998 33.15869141 211.24581909 C32.75199219 210.14666168 32.34529297 209.04750427 31.92626953 207.91503906 C31.51620667 206.80680786 31.1061438 205.69857666 30.68365479 204.5567627 C29.85291028 202.31065612 29.02279137 200.06431807 28.19329834 197.81774902 C23.16718287 184.21948114 17.96761254 170.79599981 12.07617188 157.54833984 C8.43396094 149.27374005 5.3825532 140.85161878 2.4375 132.3125 C-3.05141929 116.42023793 -9.70119176 101.18808242 -16.8203125 85.9609375 C-28.03120359 61.93315532 -38.09769528 37.55392231 -41 11 C-36.70531377 8.13118375 -32.3082765 6.57580945 -27.4375 5 C-26.64118164 4.74017334 -25.84486328 4.48034668 -25.02441406 4.21264648 C-6.14388471 -1.86807305 -6.14388471 -1.86807305 0 0 Z " fill="#EDD7AE" transform="translate(246,882)"/>
<path d="M0 0 C1.43793392 0.31049726 2.8753318 0.6234776 4.3125 0.9375 C5.11300781 1.11152344 5.91351563 1.28554688 6.73828125 1.46484375 C9 2 9 2 12 3 C10.69772828 6.52672629 9.12370592 9.48861033 7.0625 12.625 C1.47689081 21.82964693 -0.56599177 31.67434359 1.69140625 42.234375 C3.95301497 50.44808366 7.162412 55.86964755 12.89453125 62.0390625 C19.27586277 68.92947984 24.75187139 76.2923034 30.265625 83.88671875 C32.69599511 87.2326131 35.16088577 90.54621866 37.671875 93.83203125 C56.74484376 118.80115246 72.80833648 145.01145551 87 173 C87.37898437 173.73653809 87.75796875 174.47307617 88.1484375 175.23193359 C127.93857893 252.96107736 143.2188968 348.697493 165.00586033 432.72610855 C170.88637474 455.40420251 176.7929452 478.07481799 182.7890625 500.72265625 C183.0599192 501.74584269 183.33077591 502.76902912 183.60984039 503.82322121 C186.20343071 513.61849045 188.80166206 523.41251642 191.40728188 533.2045927 C192.3477303 536.74027914 193.28641816 540.27643157 194.22480392 543.81266594 C194.86703027 546.22966651 195.51202591 548.64591661 196.15713501 551.06214905 C196.53866054 552.49923864 196.92004768 553.93636498 197.30126953 555.37353516 C197.63144073 556.6130191 197.96161194 557.85250305 198.30178833 559.12954712 C199 562 199 562 199 564 C141.91 564 84.82 564 26 564 C25.34 555.42 24.68 546.84 24 538 C23.3526965 532.8877198 22.68582763 527.83118648 21.875 522.75 C21.51438954 520.43288597 21.15747502 518.11519299 20.8046875 515.796875 C20.64983887 514.82073242 20.49499023 513.84458984 20.33544922 512.83886719 C19.98428079 509.86697019 19.94299419 506.98976101 20 504 C20.70680908 503.75991211 21.41361816 503.51982422 22.1418457 503.27246094 C73.35322675 487.98336117 73.35322675 487.98336117 110.84375 453.87109375 C113.5587483 447.12945946 114.33239081 440.9602337 114.25 433.76953125 C114.24395752 432.90141312 114.23791504 432.03329498 114.23168945 431.13887024 C114.08975503 421.58813511 113.13474593 412.16415617 112 402.6875 C111.837276 401.29443634 111.837276 401.29443634 111.67126465 399.87322998 C106.59563626 356.73767339 98.29161635 314.42975888 85.875 272.8125 C85.63309937 271.99999786 85.39119873 271.18749573 85.14196777 270.35037231 C82.45220659 261.37492537 79.54314649 252.50098579 76.328125 243.69921875 C76.04323212 242.91585648 75.75833923 242.1324942 75.46481323 241.32539368 C71.16311024 229.72109684 71.16311024 229.72109684 62 222 C46.25658991 217.18219712 26.10351123 221.39652776 10.0324707 223.5769043 C9.35067749 223.66876511 8.66888428 223.76062592 7.96643066 223.85527039 C6.11383818 224.10787974 4.2625498 224.3700018 2.41137695 224.6328125 C-1.08608419 225.00926577 -4.48517355 225.06274975 -8 225 C-8.10546143 224.24904053 -8.21092285 223.49808105 -8.31958008 222.72436523 C-8.80715321 219.29389272 -9.30968699 215.86577052 -9.8125 212.4375 C-9.97814453 211.25607422 -10.14378906 210.07464844 -10.31445312 208.85742188 C-11.40862495 198.75048487 -11.40862495 198.75048487 -16.75 190.5625 C-20.00696043 189.74825989 -22.65654912 189.64177312 -26 190 C-29.03225902 191.99490725 -29.83436501 193.34551794 -30.72265625 196.85546875 C-31.42797462 202.53876416 -30.05491085 208.16809041 -29.0625 213.75 C-28.67653204 215.99447374 -28.29233307 218.23925262 -27.91015625 220.484375 C-27.73621338 221.47147461 -27.56227051 222.45857422 -27.38305664 223.47558594 C-27 226 -27 226 -27 229 C-34 231.33333333 -41 233.66666667 -48 236 C-57.74556156 222.45129247 -65.08229846 207.07484277 -72.9140625 192.38696289 C-76.78200225 185.1596996 -80.82296063 178.05304663 -85 171 C-80.75701491 164.98177502 -76.04741242 159.73102127 -70.8125 154.5625 C-70.05855957 153.81315186 -69.30461914 153.06380371 -68.52783203 152.29174805 C-63.82680513 147.66667397 -58.99731776 143.37203724 -53.80859375 139.296875 C-45.72631071 132.6871637 -38.19503409 125.30876877 -30.9375 117.8125 C-25.61043781 112.40513034 -19.67974458 107.84810457 -13.63085938 103.28662109 C-12.51634424 102.40735541 -11.43459245 101.48535606 -10.38476562 100.52978516 C-6.53609693 97.02759322 -6.53609693 97.02759322 -3.875 96.890625 C-1.26051866 98.43752646 0.15685141 100.33435829 2 102.75 C5.58714261 107.29925701 9.30632531 111.631157 13.25 115.875 C13.745 116.40963867 14.24 116.94427734 14.75 117.49511719 C15.70296116 118.51788532 16.66122108 119.53574736 17.62524414 120.5480957 C18.96318766 121.96112183 20.26927483 123.40409916 21.57421875 124.84765625 C24.1885114 127.16726213 25.13956416 127.66369984 28.5625 127.5625 C31.52126908 127.36524873 32.93283271 127.03767921 35.5625 125.5625 C37.81350007 121.5498477 38.21975971 118.46788389 37 114 C34.44657947 109.91941408 31.28053664 106.50841762 28 103 C27.08867563 102.00758182 26.1785286 101.01408129 25.26953125 100.01953125 C23.87870949 98.50119698 22.48599539 96.9848876 21.08642578 95.47460938 C16.48668537 90.49862845 12.23618527 85.2848826 8 80 C6.97243495 78.7517137 5.94372032 77.50437313 4.9140625 76.2578125 C3.83825802 74.94294036 2.76273513 73.62783777 1.6875 72.3125 C1.18355713 71.70688232 0.67961426 71.10126465 0.16040039 70.47729492 C-9.2222537 58.90927412 -11.32455186 44.67688914 -10 30 C-8.45746585 19.35651438 -4.27342388 9.77618888 0 0 Z " fill="#00C9C9" transform="translate(357,716)"/>
<path d="M0 0 C15.38079124 2.45169153 30.52600271 12.02882824 44.23583984 18.92236328 C47.59423716 20.60954545 50.95879917 22.28390885 54.32421875 23.95703125 C68.8142525 31.19531869 82.98382462 38.88445288 97 47 C97.83992493 47.484617 98.67984985 47.96923401 99.54522705 48.46853638 C115.95461477 57.93993419 131.81723091 68.03424106 145.765625 80.9609375 C147.64525817 82.67626707 149.56269442 84.24384517 151.5625 85.8125 C175.59022647 106.38340733 180.26386831 146.00772831 182.84985352 175.75439453 C184.58341958 201.68177777 180.53074957 231.63850763 162.9387207 251.97265625 C156.34297536 259.232374 148.92283912 265.25641311 141 271 C140.3920459 271.44553223 139.7840918 271.89106445 139.15771484 272.35009766 C108.43316945 294.70765504 67.0074096 315.9781196 28 315 C28.43119141 313.71416016 28.43119141 313.71416016 28.87109375 312.40234375 C29.95724909 309.12884442 31.02409006 305.85145621 32.0625 302.5625 C32.40410156 301.49128906 32.74570312 300.42007812 33.09765625 299.31640625 C34.94130224 292.54040863 35.1586935 285.93785114 35.16796875 278.96875 C35.17220352 277.99736588 35.17643829 277.02598175 35.18080139 276.02516174 C35.19072824 272.85006429 35.19070715 269.67511036 35.1875 266.5 C35.18689575 265.4062204 35.1862915 264.3124408 35.18566895 263.18551636 C35.12029392 219.4037808 31.54348718 176.00054347 25.57495117 132.63842773 C25.46992783 131.87460785 25.36490448 131.11078796 25.25669861 130.32382202 C25.06014749 128.90270653 24.86144466 127.48188629 24.66017151 126.06143188 C24.28098063 123.3405706 24 120.75219476 24 118 C36.61448371 119.55288213 48.84350873 121.06994115 60.62109375 126.125 C64.11662376 127.41071219 66.44142268 126.97052109 70 126 C73.14674823 123.25668103 73.89954133 121.62507614 74.5625 117.5 C74.01255039 114.07809129 73.4954506 112.42145299 70.83203125 110.18359375 C56.64791694 101.01986958 37.42179947 99.74309603 21 98 C19.65010371 92.78979789 18.51353837 87.61904147 17.58984375 82.3125 C17.32445724 80.81288836 17.05847944 79.31338127 16.79199219 77.81396484 C16.65321655 77.03027527 16.51444092 76.24658569 16.37145996 75.43914795 C13.68411751 60.33446913 10.64782525 45.33589081 7.25 30.375 C7.05977264 29.53614258 6.86954529 28.69728516 6.67355347 27.83300781 C4.55701546 18.52779351 2.36772115 9.24506148 0 0 Z " fill="#00BEBE" transform="translate(968,792)"/>
<path d="M0 0 C2.25628474 2.83291352 3.89686028 5.61919914 5.41796875 8.90234375 C6.08650879 10.34528809 6.08650879 10.34528809 6.76855469 11.81738281 C7.23680664 12.84702148 7.70505859 13.87666016 8.1875 14.9375 C8.67508789 16.00709961 9.16267578 17.07669922 9.66503906 18.17871094 C14.90997372 29.82225925 19.5352416 41.67232516 23.625 53.76953125 C26.85554186 63.32377244 30.48558441 72.56821167 34.54296875 81.8046875 C40.94349392 96.51926088 46.55338109 111.49265528 52.0625 126.5625 C57.47129977 141.32105863 62.92364065 156.04490354 68.84765625 170.60546875 C69.50363548 172.21899986 69.50363548 172.21899986 70.17286682 173.86512756 C77.65550635 192.07396265 86.61212998 209.28010601 96.46337891 226.30664062 C99.04562317 230.83274783 101.5246969 235.41475627 104 240 C91.80474832 248.9864351 78.66368727 256.83961907 65.125 263.625 C64.48997559 263.94331787 63.85495117 264.26163574 63.20068359 264.58959961 C53.40756431 269.36778956 44.61536088 270.69421071 34.0625 267.4375 C1.88539918 255.42359552 -19.78234696 224.80485567 -34.0625 194.76171875 C-51.96459431 155.04276401 -48.0218012 109.94233909 -33.17285156 70.02685547 C-23.86171235 45.99698371 -12.3206903 22.61904508 0 0 Z " fill="#00BDBD" transform="translate(208,971)"/>
<path d="M0 0 C4.98472086 2.41138121 8.47542807 6.48705196 12.25 10.4375 C20.47493776 18.81432266 31.15868328 23.17049145 41.9375 27.375 C44.31947013 28.32827918 46.7009758 29.28271971 49.08203125 30.23828125 C50.25072754 30.70443848 51.41942383 31.1705957 52.62353516 31.65087891 C80.77837724 42.90060106 102.88293832 57.80998819 125.95703125 77.421875 C127.52346256 78.74901834 129.09167145 80.07448472 130.68505859 81.36914062 C134.89945379 84.79890758 134.89945379 84.79890758 136 87 C136.36206054 91.41713859 136.51432609 93.94898583 134.5625 97.9375 C131.49261703 100.40838142 129.46113374 101.2304773 125.54296875 101.44140625 C120.0621956 100.49005853 116.12019165 96.51202507 112 93 C110.97918984 92.13408726 109.95835604 91.26820239 108.9375 90.40234375 C107.32709658 89.03181945 105.71787644 87.65999561 104.11157227 86.28466797 C84.42676716 69.53200968 62.37593225 58.41626009 38.4375 49 C12.03803609 38.60087233 12.03803609 38.60087233 2 30 C0.93057627 29.10700748 -0.13980347 28.21515908 -1.2109375 27.32421875 C-2.13132812 26.55722656 -3.05171875 25.79023438 -4 25 C-11.15560049 51.43403872 -12.98610433 77.51326789 -5 104 C-3.56654255 108.79967969 -2.43615485 112.92539368 -3 118 C-4.79562405 120.75329021 -6.05254922 122.52627461 -9 124 C-15.99140401 124.68767908 -15.99140401 124.68767908 -19.75 122.125 C-24.79770096 115.11430422 -26.8266529 106.62885931 -28.75 98.3125 C-29.08064453 96.96575195 -29.08064453 96.96575195 -29.41796875 95.59179688 C-30.59580813 90.59878212 -31.25255466 86.12826272 -31 81 C-40.57834416 81.14230251 -48.79628722 84.10354363 -57.625 87.4375 C-69.46647039 91.85484661 -79.78129244 95.3688088 -92.5625 95.125 C-93.47580078 95.11597656 -94.38910156 95.10695313 -95.33007812 95.09765625 C-97.55367319 95.07437253 -99.77668677 95.0416771 -102 95 C-102.56164857 111.05898885 -100.72959723 126.34513591 -96.5625 141.875 C-96.36954346 142.60581787 -96.17658691 143.33663574 -95.9777832 144.08959961 C-94.25623116 150.0978373 -91.20307001 154.56787166 -87.25 159.375 C-84.37940576 163.3707963 -84.3652212 166.15981162 -85 171 C-86.31235738 173.55909689 -87.11743702 174.62175872 -89.75 175.75 C-90.4925 175.8325 -91.235 175.915 -92 176 C-93.0725 176.165 -94.145 176.33 -95.25 176.5 C-101.48678696 175.6684284 -104.69836711 171.68523837 -108.6640625 167.05859375 C-121.90188044 149.17056797 -126.36260008 115.16659315 -123.6875 93.46484375 C-122.53179595 86.62348854 -120.60330165 80.60330165 -115.625 75.625 C-109.803421 72.02116538 -105.71169764 71.98035113 -99.09765625 72.68359375 C-86.85498955 73.93410573 -77.72301891 72.08571951 -66.37158203 67.86865234 C-62.33837594 66.39138785 -58.26257976 65.04391225 -54.1875 63.6875 C-53.44081055 63.43339355 -52.69412109 63.17928711 -51.92480469 62.91748047 C-46.36144783 61.043065 -41.55566457 59.85925781 -35.6875 59.9375 C-34.36298828 59.95103516 -34.36298828 59.95103516 -33.01171875 59.96484375 C-32.01591797 59.98224609 -32.01591797 59.98224609 -31 60 C-31.061875 58.72125 -31.12375 57.4425 -31.1875 56.125 C-31.16349008 39.14998948 -27.5229172 15.32041721 -15.375 2.875 C-10.57306179 -0.93936978 -5.8953084 -1.34848696 0 0 Z " fill="#000000" transform="translate(437,156)"/>
<path d="M0 0 C0.9327626 0.41883453 0.9327626 0.41883453 1.8843689 0.84613037 C11.47107365 5.14686999 21.01343461 9.39283637 30.9609375 12.796875 C31.62920563 13.02855881 32.29747375 13.26024261 32.98599243 13.49894714 C36.27398288 14.63715502 39.56726791 15.74413396 42.88134766 16.80395508 C51.06133575 19.60928194 55.64038258 22.46553231 60 30 C60.37850098 30.63397705 60.75700195 31.2679541 61.14697266 31.92114258 C62.10216081 33.61995616 62.9601254 35.37234215 63.8125 37.125 C64.65748047 38.83042969 64.65748047 38.83042969 65.51953125 40.5703125 C70.61835953 52.38237379 71.17665228 66.54024537 66.75 78.6875 C59.45870486 94.44555609 47.2316165 109.7683835 35 122 C32.67749023 122.3347168 32.67749023 122.3347168 29.80859375 122.44921875 C28.78185547 122.49240234 27.75511719 122.53558594 26.69726562 122.58007812 C25.08368164 122.63325195 25.08368164 122.63325195 23.4375 122.6875 C22.35791016 122.73455078 21.27832031 122.78160156 20.16601562 122.83007812 C14.2826609 123.05564986 14.2826609 123.05564986 12 123 C9.96214966 120.96214966 10.36793403 116.93962499 10.09204102 114.13256836 C10.00732544 113.30600235 9.92260986 112.47943634 9.83532715 111.62782288 C9.55357377 108.86560926 9.27850489 106.10277721 9.00390625 103.33984375 C8.8085608 101.40008909 8.61299545 99.46035656 8.41722107 97.52064514 C8.00487762 93.42413303 7.59594401 89.32729723 7.18920898 85.23022461 C6.77791092 81.09008582 6.36201682 76.95045749 5.94116211 72.8112793 C3.4755732 48.5612281 1.23466747 24.34719519 0 0 Z " fill="#1400B1" transform="translate(778,611)"/>
<path d="M0 0 C5.32849109 1.52525581 8.91301048 6.16234924 12.32421875 10.29296875 C16.14193188 15.20581874 16.14193188 15.20581874 21.2734375 18.44921875 C23.66111445 18.73833637 23.66111445 18.73833637 27.1015625 17.6015625 C29.90774258 14.8008885 29.90774258 14.8008885 32.1015625 11.6015625 C36.28792112 8.9653827 40.30169145 9.08698933 45.1015625 9.6015625 C50.40864811 11.40822994 54.34218094 15.14997933 58.5390625 18.76171875 C63.87257042 22.5911124 68.42274451 22.89797279 74.71484375 22.0703125 C82.82165836 20.47813942 88.53423125 14.5248963 93.7265625 8.4765625 C98.81584821 2.57299107 98.81584821 2.57299107 102.1015625 0.6015625 C105.9140625 0.3515625 105.9140625 0.3515625 109.1015625 0.6015625 C109.1015625 1.2615625 109.1015625 1.9215625 109.1015625 2.6015625 C109.7409375 2.9109375 110.3803125 3.2203125 111.0390625 3.5390625 C113.1015625 4.6015625 113.1015625 4.6015625 114.1015625 5.6015625 C115.02931855 10.86276136 114.41882271 14.75555613 111.4765625 19.2265625 C110.37432706 20.702177 109.2498832 22.1615206 108.1015625 23.6015625 C107.65683594 24.20871094 107.21210938 24.81585937 106.75390625 25.44140625 C99.58921067 34.65315771 89.37876127 40.44229326 78.2265625 43.3515625 C65.20826008 44.39302669 55.09862828 43.13073284 44.76953125 34.67578125 C43.05482905 33.30704888 43.05482905 33.30704888 40.4765625 34.0390625 C39.6928125 34.5546875 38.9090625 35.0703125 38.1015625 35.6015625 C31.64900037 39.63441383 24.03115973 40.31776364 16.57421875 39.234375 C4.42871055 35.77642715 -2.83311845 25.32899283 -9.8984375 15.6015625 C-11.51432129 12.36979493 -11.47295157 9.09540967 -10.8984375 5.6015625 C-8.0436104 1.31932185 -5.2768994 -0.37550969 0 0 Z " fill="#020101" transform="translate(367.8984375,633.3984375)"/>
<path d="M0 0 C0.57411621 0.39832031 1.14823242 0.79664063 1.73974609 1.20703125 C12.50452849 8.75867523 12.50452849 8.75867523 15 14 C15 18.32499429 14.41733802 20.42309156 11.875 23.9375 C8.17015256 26.59532534 6.50522811 26.48667588 2 26 C-0.74701765 24.79190455 -3.14969676 23.18650051 -5.625 21.5 C-7.03771279 20.58195796 -8.45047387 19.66399023 -9.86328125 18.74609375 C-11.24308079 17.83207625 -12.62202555 16.9167667 -14 16 C-25.78933189 8.18353737 -34.56127536 4.80096681 -48.6875 4.625 C-49.57888672 4.61082031 -50.47027344 4.59664062 -51.38867188 4.58203125 C-57.25864882 4.62573919 -61.66501688 5.50757185 -67 8 C-67.825 8.86625 -68.65 9.7325 -69.5 10.625 C-72.41996411 13.3989659 -74.13753091 13.92871205 -78.06640625 14.2109375 C-81.24004254 13.86472263 -82.87168813 12.25730047 -85 10 C-86.78464787 6.43070427 -86.73142941 2.88029498 -86 -1 C-81.58450059 -9.00487312 -73.64813886 -12.3971935 -65.375 -15.25 C-41.24844995 -20.61145557 -19.83956372 -13.79561224 0 0 Z " fill="#020201" transform="translate(541,510)"/>
<path d="M0 0 C1.71889713 0.3706839 3.42565481 0.79807102 5.125 1.25 C6.5523241 1.57244284 7.98082607 1.88969442 9.41015625 2.203125 C21.36848214 4.87174107 21.36848214 4.87174107 24.125 6.25 C24.59329224 8.4760437 24.59329224 8.4760437 24.90283203 11.45654297 C25.02280548 12.56794647 25.14277893 13.67934998 25.26638794 14.82443237 C25.38730804 16.03479156 25.50822815 17.24515076 25.6328125 18.4921875 C25.82833206 20.34386032 25.82833206 20.34386032 26.02780151 22.23294067 C26.37319523 25.52242817 26.71028831 28.81256226 27.04370117 32.10327148 C27.38479136 35.44595528 27.73816265 38.78732029 28.08984375 42.12890625 C28.59992988 47.0136816 29.10904482 51.89853335 29.60595703 56.78466797 C29.75679245 58.26240189 29.75679245 58.26240189 29.91067505 59.76998901 C30.125 62.25 30.125 62.25 30.125 65.25 C27.45582802 65.64543289 24.80649857 65.96395169 22.125 66.25 C20.94804565 66.43296631 20.94804565 66.43296631 19.74731445 66.61962891 C15.8569806 66.98843613 13.21361498 67.13290069 10.08886719 64.59863281 C8.11334203 62.19625123 6.39074284 59.72746173 4.6875 57.125 C3.40399298 55.28530661 2.11882492 53.44677101 0.83203125 51.609375 C-0.10261963 50.24329102 -0.10261963 50.24329102 -1.05615234 48.84960938 C-3.9925683 44.65270238 -7.21884054 40.70246975 -10.46264648 36.74169922 C-13.54146038 32.90363442 -16.56543477 29.02157621 -17.125 24.01171875 C-16.38640493 17.88368776 -14.32852852 13.34082313 -10.875 8.25 C-10.35679687 7.46496094 -9.83859375 6.67992187 -9.3046875 5.87109375 C-6.35788137 1.93059718 -5.05136561 0.32589456 0 0 Z " fill="#1300B0" transform="translate(393.875,726.75)"/>
<path d="M0 0 C8.02008722 5.68697094 14.30772686 11.93609953 20.3125 19.6875 C20.74546387 20.24638916 21.17842773 20.80527832 21.62451172 21.38110352 C25.77182824 26.84029292 27.59077444 30.02886163 27 37 C25.94921875 40.625 25.94921875 40.625 24 44 C21.24480235 44.97000651 19.33028129 45.40785259 16.5 45.6875 C15.05227269 45.88660127 13.605621 46.0936813 12.16015625 46.30859375 C11.45133301 46.41284668 10.74250977 46.51709961 10.01220703 46.62451172 C7.17056642 47.15477661 4.60588405 48.15518318 1.9375 49.25 C-2.57876053 50.9962874 -5.20364773 51.24043593 -10 50 C-12.31204159 49.47713547 -14.62458157 48.95647199 -16.9375 48.4375 C-18.95900646 47.96118112 -20.98007005 47.4829607 -23 47 C-20.27701482 41.45440823 -17.51867144 35.93763375 -14.5859375 30.5 C-9.86378598 21.72566514 -5.57030191 13.04233199 -2.05859375 3.7109375 C-1 1 -1 1 0 0 Z " fill="#00B9B9" transform="translate(895,688)"/>
<path d="M0 0 C4.34758898 2.2923651 4.34758898 2.2923651 6 5 C6.9846969 9.40800558 7.310729 13.85224406 4.88671875 17.82421875 C2.20913002 20.34302863 -0.02690215 21.00324681 -3.625 21.4375 C-7 21 -7 21 -11 19 C-11 13.39 -11 7.78 -11 2 C-6.66257893 -0.16871054 -4.75485017 -0.57386123 0 0 Z " fill="#000000" transform="translate(11,1135)"/>
<path d="M0 0 C1.875 1.125 1.875 1.125 3 3 C3.39365568 6.14924548 3.52854531 8.11909116 1.875 10.875 C-0.88090884 12.52854531 -2.85075452 12.39365568 -6 12 C-7.875 10.875 -7.875 10.875 -9 9 C-9.39365568 5.85075452 -9.52854531 3.88090884 -7.875 1.125 C-5.11909116 -0.52854531 -3.14924548 -0.39365568 0 0 Z " fill="#000000" transform="translate(1202,904)"/>
<path d="M0 0 C0 3.63 0 7.26 0 11 C-2.64 9.35 -5.28 7.7 -8 6 C-7.67 4.68 -7.34 3.36 -7 2 C-2.2 0 -2.2 0 0 0 Z " fill="#363636" transform="translate(1280,230)"/>
<path d="M0 0 C0.66 0 1.32 0 2 0 C2 1.32 2 2.64 2 4 C1.01 3.67 0.02 3.34 -1 3 C-0.67 2.01 -0.34 1.02 0 0 Z " fill="#000000" transform="translate(988,439)"/>
<path d="M0 0 C3 1 3 1 3 1 Z " fill="#000000" transform="translate(1007,92)"/>
<path d="M0 0 C0.66 0.66 1.32 1.32 2 2 C1.34 2 0.68 2 0 2 C0 1.34 0 0.68 0 0 Z " fill="#000000" transform="translate(1177,31)"/>
</svg>
